<svg height="512pt" viewBox="0 -5 512 511" width="512pt" xmlns="http://www.w3.org/2000/svg"><path d="m500.757812 251c-.039062 79.496094-37.273437 150.5625-95.292968 196.457031-8.753906 6.925781-17.980469 13.253907-27.628906 18.976563-37.332032 22.15625-81.027344 34.824218-127.457032 34.824218-83.289062 0-157.070312-40.65625-202.589844-103.214843-3.085937-4.246094.003907-10.21875 5.25-10.21875h42.003907c16.933593 0 30.65625-13.726563 30.65625-30.660157v-286.148437c0-9.625-4.433594-18.207031-11.371094-23.828125-2.210937-1.789062-2.011719-5.230469.375-6.773438 39.09375-25.257812 85.667969-39.914062 135.675781-39.914062 138.320313 0 250.445313 112.164062 250.378906 250.5zm0 0" fill="#0573cd"/><path d="m405.464844 447.457031c-8.59375 7.109375-17.695313 13.304688-27.628906 18.976563l-117.207032-133.382813 59.4375-41.617187zm-310.171875.003907c8.265625 6.917968 17.757812 13.390624 27.636719 18.980468l117.199218-133.390625-59.4375-41.617187zm0 0" fill="#fdd194"/><path d="m500.757812 71.015625v286.148437c0 16.929688-13.726562 30.65625-30.65625 30.65625h-423.214843c-25.761719-39.351562-40.753907-86.394531-40.753907-136.941406 0-88.316406 45.730469-165.949218 114.800782-210.523437h349.167968c16.929688 0 30.65625 13.726562 30.65625 30.660156zm0 0" fill="#08e092"/><path d="m50.074219 238.796875c0 55.007813 14.996093 106.199219 40.757812 149.023437h-50.097656c-25.761719-39.351562-40.734375-86.394531-40.734375-136.941406 0-88.316406 45.71875-165.949218 114.789062-210.523437h14.101563c-48.515625 49.691406-78.816406 120.214843-78.816406 198.441406zm0 0" fill="#04d481"/><path d="m285.125 382.710938c0 8.464843-6.863281 15.328124-15.328125 15.328124h-222.007813c-7.066406-9.714843-13.453124-19.957031-19.089843-30.65625h241.097656c8.464844 0 15.328125 6.863282 15.328125 15.328126zm0 0" fill="#00f1a5"/><path d="m512 382.710938c0 8.464843-6.863281 15.328124-15.328125 15.328124h-400.609375c-8.464844 0-15.328125-6.863281-15.328125-15.328124 0-8.464844 6.863281-15.328126 15.328125-15.328126h400.609375c8.464844 0 15.328125 6.863282 15.328125 15.328126zm0 0" fill="#5affb7"/><path d="m152.269531 352.054688v10.21875c0 2.820312-2.285156 5.109374-5.109375 5.109374h-81.753906c-2.824219 0-5.109375-2.289062-5.109375-5.109374v-10.21875c0-2.824219 2.285156-5.113282 5.109375-5.113282h81.753906c2.824219 0 5.109375 2.289063 5.109375 5.113282zm0 0" fill="#fdf7bd"/><path d="m203.371094 178.320312v-10.21875c0-2.824218 2.285156-5.109374 5.109375-5.109374h183.949219c2.824218 0 5.109374 2.285156 5.109374 5.109374v10.21875c0 2.820313-2.285156 5.109376-5.109374 5.109376h-183.949219c-2.824219 0-5.109375-2.289063-5.109375-5.109376zm194.167968 30.660157c0-2.824219-2.285156-5.109375-5.109374-5.109375h-183.949219c-2.824219 0-5.109375 2.285156-5.109375 5.109375v10.21875c0 2.820312 2.285156 5.109375 5.109375 5.109375h183.949219c2.824218 0 5.109374-2.289063 5.109374-5.109375zm-66.425781 35.765625h-122.632812c-2.824219 0-5.109375 2.289062-5.109375 5.109375v10.222656c0 2.820313 2.285156 5.109375 5.109375 5.109375h122.632812c2.820313 0 5.109375-2.289062 5.109375-5.109375v-10.222656c0-2.820313-2.289062-5.109375-5.109375-5.109375zm-194.171875-132.851563h-10.21875c-2.820312 0-5.109375 2.285157-5.109375 5.109375v30.65625c0 2.824219 2.289063 5.109375 5.109375 5.109375h10.21875c2.824219 0 5.109375-2.285156 5.109375-5.109375v-30.65625c0-2.824218-2.285156-5.109375-5.109375-5.109375zm30.660156 0h-10.21875c-2.824218 0-5.113281 2.285157-5.113281 5.109375v30.65625c0 2.824219 2.289063 5.109375 5.113281 5.109375h10.21875c2.820313 0 5.109376-2.285156 5.109376-5.109375v-30.65625c0-2.824218-2.289063-5.109375-5.109376-5.109375zm245.269532 153.292969h-10.21875c-2.824219 0-5.113282 2.289062-5.113282 5.109375v30.660156c0 2.820313 2.289063 5.109375 5.113282 5.109375h10.21875c2.820312 0 5.109375-2.289062 5.109375-5.109375v-30.660156c0-2.820313-2.289063-5.109375-5.109375-5.109375zm30.65625 0h-10.21875c-2.820313 0-5.109375 2.289062-5.109375 5.109375v30.660156c0 2.820313 2.289062 5.109375 5.109375 5.109375h10.21875c2.824218 0 5.113281-2.289062 5.113281-5.109375v-30.660156c0-2.820313-2.289063-5.109375-5.113281-5.109375zm0 0" fill="#fff5f5"/></svg>