<?xml version="1.0" encoding="utf-8"?>
<!-- Generator: Adobe Illustrator 20.1.0, SVG Export Plug-In . SVG Version: 6.00 Build 0)  -->
<svg version="1.1" xmlns="http://www.w3.org/2000/svg" xmlns:xlink="http://www.w3.org/1999/xlink" x="0px" y="0px"
	 viewBox="0 0 1000 1000" style="enable-background:new 0 0 1000 1000;" xml:space="preserve">
<g id="Layer_5">
	<rect x="-53.5" y="-53.5" style="fill:#EDE6D7;" width="1107" height="1107"/>
</g>
<g id="Capa_3">
	<g>
		<g>
			<path style="fill:#231D1F;" d="M675.5,581h-99c-7.4,0-13.5-6.1-13.5-13.5l0,0c0-7.4,6.1-13.5,13.5-13.5h99
				c7.4,0,13.5,6.1,13.5,13.5l0,0C689,574.9,682.9,581,675.5,581z"/>
			<path style="fill:#E12128;" d="M675.5,617h-99c-7.4,0-13.5-6.1-13.5-13.5l0,0c0-7.4,6.1-13.5,13.5-13.5h99
				c7.4,0,13.5,6.1,13.5,13.5l0,0C689,610.9,682.9,617,675.5,617z"/>
			<path style="fill:#E1BD22;" d="M675.5,653h-99c-7.4,0-13.5-6.1-13.5-13.5l0,0c0-7.4,6.1-13.5,13.5-13.5h99
				c7.4,0,13.5,6.1,13.5,13.5l0,0C689,646.9,682.9,653,675.5,653z"/>
		</g>
		<g>
			<path style="fill:#036CB5;" d="M189.5,581h-99c-7.4,0-13.5-6.1-13.5-13.5l0,0c0-7.4,6.1-13.5,13.5-13.5h99
				c7.4,0,13.5,6.1,13.5,13.5l0,0C203,574.9,196.9,581,189.5,581z"/>
			<path style="fill:#020304;" d="M189.5,617h-99c-7.4,0-13.5-6.1-13.5-13.5l0,0c0-7.4,6.1-13.5,13.5-13.5h99
				c7.4,0,13.5,6.1,13.5,13.5l0,0C203,610.9,196.9,617,189.5,617z"/>
			<path style="fill:#FFFFFF;" d="M189.5,653h-99c-7.4,0-13.5-6.1-13.5-13.5l0,0c0-7.4,6.1-13.5,13.5-13.5h99
				c7.4,0,13.5,6.1,13.5,13.5l0,0C203,646.9,196.9,653,189.5,653z"/>
		</g>
		<g>
			<path style="fill:#E62044;" d="M909.5,797h-99c-7.4,0-13.5-6.1-13.5-13.5l0,0c0-7.4,6.1-13.5,13.5-13.5h99
				c7.4,0,13.5,6.1,13.5,13.5l0,0C923,790.9,916.9,797,909.5,797z"/>
			<path style="fill:#FFFFFF;" d="M909.5,833h-99c-7.4,0-13.5-6.1-13.5-13.5l0,0c0-7.4,6.1-13.5,13.5-13.5h99
				c7.4,0,13.5,6.1,13.5,13.5l0,0C923,826.9,916.9,833,909.5,833z"/>
			<path style="fill:#089AD7;" d="M909.5,869h-99c-7.4,0-13.5-6.1-13.5-13.5l0,0c0-7.4,6.1-13.5,13.5-13.5h99
				c7.4,0,13.5,6.1,13.5,13.5l0,0C923,862.9,916.9,869,909.5,869z"/>
		</g>
		<g>
			<path style="fill:#231D1F;" d="M815,437L815,437c-9.9,0-18-8.1-18-18v-63c0-9.9,8.1-18,18-18l0,0c9.9,0,18,8.1,18,18v63
				C833,428.9,824.9,437,815,437z"/>
			<path style="fill:#FAE04F;" d="M860,437L860,437c-9.9,0-18-8.1-18-18v-63c0-9.9,8.1-18,18-18l0,0c9.9,0,18,8.1,18,18v63
				C878,428.9,869.9,437,860,437z"/>
			<path style="fill:#E64239;" d="M905,437L905,437c-9.9,0-18-8.1-18-18v-63c0-9.9,8.1-18,18-18l0,0c9.9,0,18,8.1,18,18v63
				C923,428.9,914.9,437,905,437z"/>
		</g>
		<g>
			<path style="fill:#222750;" d="M95,437L95,437c-9.9,0-18-8.1-18-18v-63c0-9.9,8.1-18,18-18h0c9.9,0,18,8.1,18,18v63
				C113,428.9,104.9,437,95,437z"/>
			<path style="fill:#FFFFFF;" d="M140,437L140,437c-9.9,0-18-8.1-18-18v-63c0-9.9,8.1-18,18-18h0c9.9,0,18,8.1,18,18v63
				C158,428.9,149.9,437,140,437z"/>
			<path style="fill:#DF1E42;" d="M185,437L185,437c-9.9,0-18-8.1-18-18v-63c0-9.9,8.1-18,18-18h0c9.9,0,18,8.1,18,18v63
				C203,428.9,194.9,437,185,437z"/>
		</g>
		<g>
			<path style="fill:#006035;" d="M329,230L329,230c-9.9,0-18-8.1-18-18v-63c0-9.9,8.1-18,18-18h0c9.9,0,18,8.1,18,18v63
				C347,221.9,338.9,230,329,230z"/>
			<path style="fill:#FFFFFF;" d="M374,230L374,230c-9.9,0-18-8.1-18-18v-63c0-9.9,8.1-18,18-18h0c9.9,0,18,8.1,18,18v63
				C392,221.9,383.9,230,374,230z"/>
			<path style="fill:#E62244;" d="M419,230L419,230c-9.9,0-18-8.1-18-18v-63c0-9.9,8.1-18,18-18h0c9.9,0,18,8.1,18,18v63
				C437,221.9,428.9,230,419,230z"/>
		</g>
		<g>
			<path style="fill:#D22035;" d="M675.5,158h-99c-7.4,0-13.5-6.1-13.5-13.5v0c0-7.4,6.1-13.5,13.5-13.5h99
				c7.4,0,13.5,6.1,13.5,13.5v0C689,151.9,682.9,158,675.5,158z"/>
			<path style="fill:#FFFFFF;" d="M675.5,194h-99c-7.4,0-13.5-6.1-13.5-13.5v0c0-7.4,6.1-13.5,13.5-13.5h99
				c7.4,0,13.5,6.1,13.5,13.5v0C689,187.9,682.9,194,675.5,194z"/>
			<path style="fill:#214395;" d="M675.5,230h-99c-7.4,0-13.5-6.1-13.5-13.5v0c0-7.4,6.1-13.5,13.5-13.5h99
				c7.4,0,13.5,6.1,13.5,13.5v0C689,223.9,682.9,230,675.5,230z"/>
		</g>
		<g>
			<path style="fill:#D22035;" d="M909.5,581h-99c-7.4,0-13.5-6.1-13.5-13.5l0,0c0-7.4,6.1-13.5,13.5-13.5h99
				c7.4,0,13.5,6.1,13.5,13.5l0,0C923,574.9,916.9,581,909.5,581z"/>
			<path style="fill:#FFFFFF;" d="M909.5,617h-99c-7.4,0-13.5-6.1-13.5-13.5l0,0c0-7.4,6.1-13.5,13.5-13.5h99
				c7.4,0,13.5,6.1,13.5,13.5l0,0C923,610.9,916.9,617,909.5,617z"/>
			<path style="fill:#008647;" d="M909.5,653h-99c-7.4,0-13.5-6.1-13.5-13.5l0,0c0-7.4,6.1-13.5,13.5-13.5h99
				c7.4,0,13.5,6.1,13.5,13.5l0,0C923,646.9,916.9,653,909.5,653z"/>
		</g>
		<g>
			<path style="fill:#08A752;" d="M581,869L581,869c-9.9,0-18-8.1-18-18v-63c0-9.9,8.1-18,18-18l0,0c9.9,0,18,8.1,18,18v63
				C599,860.9,590.9,869,581,869z"/>
			<path style="fill:#FFFFFF;" d="M626,869L626,869c-9.9,0-18-8.1-18-18v-63c0-9.9,8.1-18,18-18l0,0c9.9,0,18,8.1,18,18v63
				C644,860.9,635.9,869,626,869z"/>
			<path style="fill:#ED6A24;" d="M671,869L671,869c-9.9,0-18-8.1-18-18v-63c0-9.9,8.1-18,18-18l0,0c9.9,0,18,8.1,18,18v63
				C689,860.9,680.9,869,671,869z"/>
		</g>
		<g>
			<path style="fill:#F7A61F;" d="M423.5,797h-99c-7.4,0-13.5-6.1-13.5-13.5l0,0c0-7.4,6.1-13.5,13.5-13.5h99
				c7.4,0,13.5,6.1,13.5,13.5l0,0C437,790.9,430.9,797,423.5,797z"/>
			<path style="fill:#006035;" d="M423.5,833h-99c-7.4,0-13.5-6.1-13.5-13.5l0,0c0-7.4,6.1-13.5,13.5-13.5h99
				c7.4,0,13.5,6.1,13.5,13.5l0,0C437,826.9,430.9,833,423.5,833z"/>
			<path style="fill:#B4292B;" d="M423.5,869h-99c-7.4,0-13.5-6.1-13.5-13.5l0,0c0-7.4,6.1-13.5,13.5-13.5h99
				c7.4,0,13.5,6.1,13.5,13.5l0,0C437,862.9,430.9,869,423.5,869z"/>
		</g>
		<g>
			<path style="fill:#D41B22;" d="M914,149H806c-5,0-9-4.1-9-9v0c0-4.9,4-9,9-9h108c5,0,9,4.1,9,9v0C923,144.9,919,149,914,149z"/>
			<path style="fill:#D41B22;" d="M914,230H806c-5,0-9-4.1-9-9v0c0-4.9,4-9,9-9h108c5,0,9,4.1,9,9v0C923,225.9,919,230,914,230z"/>
			<path style="fill:#FEE601;" d="M905.2,203h-90.4c-9.8,0-17.8-8-17.8-17.8v-9.4c0-9.8,8-17.8,17.8-17.8h90.4
				c9.8,0,17.8,8,17.8,17.8v9.4C923,195,915,203,905.2,203z"/>
		</g>
		<g>
			<path style="fill:#FFFDFE;" d="M426.7,396.5H321.3c-4.9,0-9-4-9-9l0,0c0-5,4-9,9-9h105.5c4.9,0,9,4,9,9l0,0
				C435.7,392.5,431.7,396.5,426.7,396.5z"/>
			<path style="fill:#981D2B;" d="M422.6,374h-97.2c-7.9,0-14.4-6.5-14.4-14.4v-7.2c0-7.9,6.5-14.4,14.4-14.4h97.2
				c7.9,0,14.4,6.5,14.4,14.4v7.2C437,367.5,430.5,374,422.6,374z"/>
			<path style="fill:#981D2B;" d="M422.6,437h-97.2c-7.9,0-14.4-6.5-14.4-14.4v-7.2c0-7.9,6.5-14.4,14.4-14.4h97.2
				c7.9,0,14.4,6.5,14.4,14.4v7.2C437,430.5,430.5,437,422.6,437z"/>
		</g>
		<g>
			<path style="fill:#D22035;" d="M338.6,593.8h-12.6c-6,0-11-4.9-11-11v-17.5c0-6.1,5-11,11-11h12.6c6,0,11,4.9,11,11v17.5
				C349.6,588.8,344.6,593.8,338.6,593.8z"/>
			<path style="fill:#D22035;" d="M422.1,593.8h-42.2c-6.1,0-11-4.9-11-11v-17.5c0-6.1,4.9-11,11-11h42.2c6,0,11,4.9,11,11v17.5
				C433.1,588.8,428.1,593.8,422.1,593.8z"/>
			<path style="fill:#D22035;" d="M422.1,652.8h-42.2c-6.1,0-11-4.9-11-11v-17.5c0-6.1,4.9-11,11-11h42.2c6,0,11,4.9,11,11v17.5
				C433.1,647.8,428.1,652.8,422.1,652.8z"/>
			<path style="fill:#D22035;" d="M338.6,652.8h-12.6c-6,0-11-4.9-11-11v-17.5c0-6.1,5-11,11-11h12.6c6,0,11,4.9,11,11v17.5
				C349.6,647.8,344.6,652.8,338.6,652.8z"/>
			<path style="fill:#FCFEFE;" d="M426.1,596.9h-62v-37.8c0-2.7-2.2-4.9-4.9-4.9s-4.9,2.2-4.9,4.9v37.8h-31.9
				c-2.8,0-5.1,2.3-5.1,5.1v3c0,2.8,2.3,5.1,5.1,5.1h31.9v37.8c0,2.7,2.2,4.9,4.9,4.9s4.9-2.2,4.9-4.9v-37.8h62
				c2.8,0,5.1-2.3,5.1-5.1v-3C431.2,599.2,428.9,596.9,426.1,596.9z"/>
		</g>
		<g>
			<path style="fill:#293C90;" d="M104.6,170.7H91.9c-6.1,0-11-4.9-11-11v-17.5c0-6.1,4.9-11,11-11h12.6c6.1,0,11,4.9,11,11v17.5
				C115.6,165.7,110.6,170.7,104.6,170.7z"/>
			<path style="fill:#293C90;" d="M188.1,170.7h-42.2c-6.1,0-11-4.9-11-11v-17.5c0-6.1,4.9-11,11-11h42.2c6,0,11,4.9,11,11v17.5
				C199.1,165.7,194.1,170.7,188.1,170.7z"/>
			<path style="fill:#293C90;" d="M188.1,229.6h-42.2c-6.1,0-11-5-11-11v-17.5c0-6,4.9-11,11-11h42.2c6,0,11,5,11,11v17.5
				C199.1,224.7,194.1,229.6,188.1,229.6z"/>
			<path style="fill:#293C90;" d="M104.6,229.6H91.9c-6.1,0-11-5-11-11v-17.5c0-6,4.9-11,11-11h12.6c6.1,0,11,5,11,11v17.5
				C115.6,224.7,110.6,229.6,104.6,229.6z"/>
			<path style="fill:#DE1332;" d="M191.8,174.1h-62v-37.8c0-2.7-2.2-4.9-4.9-4.9s-4.9,2.2-4.9,4.9v37.8H88.1c-2.8,0-5.1,2.3-5.1,5.1
				v3c0,2.8,2.3,5.1,5.1,5.1H120V225c0,2.7,2.2,4.9,4.9,4.9s4.9-2.2,4.9-4.9v-37.8h62c2.8,0,5.1-2.3,5.1-5.1v-3
				C196.9,176.4,194.6,174.1,191.8,174.1z"/>
		</g>
		<g>
			<path style="fill:#FFFFFF;" d="M104.6,809.7H91.9c-6.1,0-11-4.9-11-11v-17.5c0-6.1,4.9-11,11-11h12.6c6.1,0,11,4.9,11,11v17.5
				C115.6,804.7,110.6,809.7,104.6,809.7z"/>
			<path style="fill:#FFFFFF;" d="M188.1,809.7h-42.2c-6.1,0-11-4.9-11-11v-17.5c0-6.1,4.9-11,11-11h42.2c6,0,11,4.9,11,11v17.5
				C199.1,804.7,194.1,809.7,188.1,809.7z"/>
			<path style="fill:#FFFFFF;" d="M188.1,868.6h-42.2c-6.1,0-11-4.9-11-11v-17.5c0-6.1,4.9-11,11-11h42.2c6,0,11,4.9,11,11v17.5
				C199.1,863.7,194.1,868.6,188.1,868.6z"/>
			<path style="fill:#FFFFFF;" d="M104.6,868.6H91.9c-6.1,0-11-4.9-11-11v-17.5c0-6.1,4.9-11,11-11h12.6c6.1,0,11,4.9,11,11v17.5
				C115.6,863.7,110.6,868.6,104.6,868.6z"/>
			<path style="fill:#283474;" d="M191.8,813.1h-62v-37.8c0-2.7-2.2-4.9-4.9-4.9s-4.9,2.2-4.9,4.9v37.8H88.1c-2.8,0-5.1,2.3-5.1,5.1
				v3c0,2.8,2.3,5.1,5.1,5.1H120V864c0,2.7,2.2,4.9,4.9,4.9s4.9-2.2,4.9-4.9v-37.8h62c2.8,0,5.1-2.3,5.1-5.1v-3
				C196.9,815.4,194.6,813.1,191.8,813.1z"/>
		</g>
		<g>
			<path style="fill:#F9FCFE;" d="M609.4,354.7h-12.3v-11.3c0-2.6-2.6-4.7-5.8-4.7c-3.2,0-5.8,2.1-5.8,4.7v11.3h-12.3
				c-2.8,0-5.1,2.4-5.1,5.3v0c0,2.9,2.3,5.3,5.1,5.3h12.3v11.3c0,2.6,2.6,4.7,5.8,4.7c3.2,0,5.8-2.1,5.8-4.7v-11.3h12.3
				c2.8,0,5.1-2.4,5.1-5.3C614.5,357.1,612.2,354.7,609.4,354.7z"/>
			<path style="fill:#0061A0;" d="M618.9,343.7L618.9,343.7c0-2.8,2.5-5,5.5-5h55.2c3,0,5.5,2.3,5.5,5l0,0c0,2.8-2.5,5-5.5,5h-55.2
				C621.4,348.8,618.9,346.5,618.9,343.7z"/>
			<path style="fill:#F9FCFE;" d="M618.9,355L618.9,355c0-2.8,2.5-5,5.5-5h55.2c3,0,5.5,2.3,5.5,5l0,0c0,2.8-2.5,5-5.5,5h-55.2
				C621.4,360,618.9,357.7,618.9,355z"/>
			<path style="fill:#0061A0;" d="M618.9,366L618.9,366c0-2.8,2.5-5,5.5-5h55.2c3,0,5.5,2.3,5.5,5l0,0c0,2.8-2.5,5-5.5,5h-55.2
				C621.4,371,618.9,368.7,618.9,366z"/>
			<path style="fill:#F9FCFE;" d="M618.9,376.8L618.9,376.8c0-2.8,2.5-5,5.5-5h55.2c3,0,5.5,2.3,5.5,5v0c0,2.8-2.5,5-5.5,5h-55.2
				C621.4,381.8,618.9,379.5,618.9,376.8z"/>
			<path style="fill:#0061A0;" d="M566.9,387.5L566.9,387.5c0-2.8,2.5-5,5.5-5h107.2c3,0,5.5,2.3,5.5,5l0,0c0,2.8-2.5,5-5.5,5H572.4
				C569.4,392.5,566.9,390.3,566.9,387.5z"/>
			<path style="fill:#0061A0;" d="M566.9,409.2L566.9,409.2c0-2.8,2.5-5,5.5-5h107.2c3,0,5.5,2.3,5.5,5l0,0c0,2.8-2.5,5-5.5,5H572.4
				C569.4,414.2,566.9,411.9,566.9,409.2z"/>
			<path style="fill:#F9FCFE;" d="M566.9,420.1L566.9,420.1c0-2.8,2.5-5,5.5-5h107.2c3,0,5.5,2.3,5.5,5l0,0c0,2.8-2.5,5-5.5,5H572.4
				C569.4,425.1,566.9,422.9,566.9,420.1z"/>
			<path style="fill:#0061A0;" d="M566.9,431.3L566.9,431.3c0-2.8,2.5-5,5.5-5h107.2c3,0,5.5,2.3,5.5,5l0,0c0,2.8-2.5,5-5.5,5H572.4
				C569.4,436.3,566.9,434,566.9,431.3z"/>
			<path style="fill:#F9FCFE;" d="M566.9,398.3L566.9,398.3c0-2.8,2.5-5,5.5-5h107.2c3,0,5.5,2.3,5.5,5v0c0,2.8-2.5,5-5.5,5H572.4
				C569.4,403.4,566.9,401.1,566.9,398.3z"/>
			<path style="fill:#0061A0;" d="M614,353.2h-13.9c-1.1,0-2-0.9-2-2v-10.5c0-1.1,0.9-2,2-2H614c1.1,0,2,0.9,2,2v10.5
				C616,352.3,615.1,353.2,614,353.2z"/>
			<path style="fill:#0061A0;" d="M614,381.3h-13.9c-1.1,0-2-0.9-2-2v-10.5c0-1.1,0.9-2,2-2H614c1.1,0,2,0.9,2,2v10.5
				C616,380.4,615.1,381.3,614,381.3z"/>
			<path style="fill:#0061A0;" d="M582.8,353.2h-13.9c-1.1,0-2-0.9-2-2v-10.5c0-1.1,0.9-2,2-2h13.9c1.1,0,2,0.9,2,2v10.5
				C584.8,352.3,583.9,353.2,582.8,353.2z"/>
			<path style="fill:#0061A0;" d="M582.8,381.3h-13.9c-1.1,0-2-0.9-2-2v-10.5c0-1.1,0.9-2,2-2h13.9c1.1,0,2,0.9,2,2v10.5
				C584.8,380.4,583.9,381.3,582.8,381.3z"/>
		</g>
	</g>
</g>
</svg>
