<?xml version="1.0" encoding="iso-8859-1"?>
<!-- Generator: Adobe Illustrator 19.0.0, SVG Export Plug-In . SVG Version: 6.00 Build 0)  -->
<svg version="1.1" id="Capa_1" xmlns="http://www.w3.org/2000/svg" xmlns:xlink="http://www.w3.org/1999/xlink" x="0px" y="0px"
	 viewBox="0 0 512 512" style="enable-background:new 0 0 512 512;" xml:space="preserve">
<path style="fill:#7D9BFF;" d="M50.43,318H28c-9.941,0-18-8.059-18-18V28c0-9.941,8.059-18,18-18h456c9.941,0,18,8.059,18,18v272
	c0,9.941-8.059,18-18,18h-17.987H50.43z"/>
<rect x="64.01" y="15.3" style="fill:#FFFFFF;" width="384" height="302.7"/>
<path style="fill:#FFCDAC;" d="M92,427.264L92,427.264c-22.958,0-41.57-18.611-41.57-41.57V374.85
	c0-22.958,18.611-41.57,41.57-41.57l0,0c22.958,0,41.57,18.611,41.57,41.57v10.844C133.569,408.653,114.958,427.264,92,427.264z"/>
<path style="fill:#72D8FF;" d="M114.113,420.804l40.881,13.547c11.346,3.76,19.006,14.368,19.006,26.32V502H10v-41.329
	c0-11.952,7.659-22.56,19.005-26.319l40.881-13.547h44.227V420.804z"/>
<path style="fill:#FFCDAC;" d="M256,427.264L256,427.264c-22.958,0-41.57-18.611-41.57-41.57V374.85
	c0-22.958,18.611-41.57,41.57-41.57l0,0c22.958,0,41.57,18.611,41.57,41.57v10.844C297.569,408.653,278.958,427.264,256,427.264z"/>
<path style="fill:#FFC66C;" d="M278.113,420.804l40.881,13.547c11.346,3.76,19.006,14.368,19.006,26.32V502H174v-41.329
	c0-11.952,7.659-22.56,19.005-26.319l40.881-13.547h44.227V420.804z"/>
<path style="fill:#FFCDAC;" d="M420,427.264L420,427.264c-22.958,0-41.57-18.611-41.57-41.57V374.85
	c0-22.958,18.611-41.57,41.57-41.57l0,0c22.958,0,41.57,18.611,41.57,41.57v10.844C461.569,408.653,442.958,427.264,420,427.264z"/>
<path style="fill:#A0E557;" d="M442.113,420.804l40.881,13.547c11.346,3.76,19.006,14.368,19.006,26.32V502H338v-41.329
	c0-11.952,7.659-22.56,19.005-26.319l40.881-13.547h44.227V420.804z"/>
<circle style="fill:#FF5D5D;" cx="256.01" cy="164" r="100"/>
<path style="fill:#A0E557;" d="M298.366,173.794l-52.186,33.45c-7.743,4.963-17.911-0.597-17.911-9.794v-66.899
	c0-9.197,10.168-14.757,17.911-9.794l52.186,33.45C305.506,158.783,305.506,169.217,298.366,173.794z"/>
<path d="M512,300V28c0-15.439-12.561-28-28-28H28C12.561,0,0,12.561,0,28v272c0,15.439,12.561,28,28,28h42.488
	c-17.721,8.17-30.058,26.091-30.058,46.851v10.844c0,11.589,3.844,22.295,10.322,30.916l-24.893,8.249
	C10.392,429.985,0,444.376,0,460.671V502c0,5.523,4.477,10,10,10h164h164h164c5.523,0,10-4.477,10-10v-41.329
	c0-16.294-10.392-30.686-25.86-35.812l-24.893-8.249c6.478-8.621,10.322-19.327,10.322-30.916V374.85
	c0-20.759-12.336-38.681-30.057-46.851H484C499.439,328,512,315.439,512,300z M20,300V28c0-4.411,3.589-8,8-8h410.013v220.5
	c0,5.523,4.477,10,10,10s10-4.477,10-10V20H484c4.411,0,8,3.589,8,8v272c0,4.411-3.589,8-8,8H74.013V94c0-5.523-4.477-10-10-10
	s-10,4.477-10,10v214H28C23.589,308,20,304.411,20,300z M287.569,385.695c0,10.874-5.527,20.482-13.919,26.162
	c-0.586,0.292-1.144,0.642-1.664,1.044c-4.692,2.768-10.155,4.363-15.986,4.363s-11.293-1.595-15.986-4.363
	c-0.521-0.403-1.079-0.753-1.666-1.045c-8.392-5.68-13.918-15.287-13.918-26.161v-10.844c0-17.408,14.162-31.57,31.57-31.57
	c17.407,0,31.569,14.162,31.569,31.57V385.695z M234.488,328c-17.721,8.17-30.058,26.091-30.058,46.851v10.844
	c0,11.589,3.844,22.295,10.322,30.916l-24.893,8.249c-6.225,2.063-11.625,5.628-15.859,10.213c-4.234-4.584-9.635-8.15-15.86-10.213
	l-24.893-8.249c6.478-8.621,10.322-19.327,10.322-30.916v-10.844c0-20.759-12.336-38.681-30.057-46.851H234.488z M60.43,374.851
	c0-17.408,14.162-31.57,31.57-31.57c17.407,0,31.569,14.162,31.569,31.57v10.844c0,10.874-5.527,20.482-13.919,26.162
	c-0.586,0.292-1.144,0.642-1.664,1.044c-4.693,2.768-10.156,4.364-15.987,4.364s-11.293-1.595-15.986-4.363
	c-0.521-0.403-1.079-0.753-1.667-1.046c-8.391-5.68-13.918-15.287-13.918-26.161v-10.844H60.43z M20,460.671
	c0-7.656,4.883-14.418,12.15-16.827l36.614-12.133c6.988,3.543,14.879,5.553,23.235,5.553s16.247-2.01,23.235-5.553l36.614,12.133
	c7.268,2.409,12.151,9.171,12.151,16.827V492H20V460.671z M184,460.671c0-7.656,4.883-14.418,12.15-16.827l36.614-12.133
	c6.988,3.543,14.879,5.553,23.235,5.553c8.356,0,16.247-2.01,23.235-5.553l36.614,12.133c7.268,2.409,12.151,9.171,12.151,16.827
	V492H184V460.671z M492,460.671V492H348v-31.329c0-7.656,4.883-14.418,12.15-16.827l36.614-12.133
	c6.988,3.543,14.879,5.553,23.235,5.553s16.247-2.01,23.235-5.553l36.614,12.133C487.117,446.252,492,453.015,492,460.671z
	 M451.569,374.851v10.844c0,10.875-5.527,20.482-13.92,26.162c-0.585,0.292-1.142,0.641-1.662,1.043
	c-4.693,2.768-10.156,4.364-15.988,4.364c-5.831,0-11.293-1.595-15.985-4.363c-0.521-0.403-1.08-0.753-1.667-1.046
	c-8.391-5.68-13.917-15.287-13.917-26.161V374.85c0-17.408,14.162-31.57,31.57-31.57
	C437.407,343.281,451.569,357.443,451.569,374.851z M368.43,374.851v10.844c0,11.589,3.844,22.295,10.322,30.916l-24.893,8.249
	c-6.225,2.063-11.625,5.628-15.859,10.213c-4.234-4.584-9.635-8.15-15.86-10.213l-24.893-8.249
	c6.478-8.621,10.322-19.327,10.322-30.916v-10.844c0-20.759-12.336-38.681-30.057-46.851h120.976
	C380.767,336.17,368.43,354.091,368.43,374.851z"/>
<path d="M229.523,216.43c3.243,1.773,6.814,2.653,10.379,2.653c4.067,0,8.125-1.146,11.674-3.421l52.186-33.449
	c6.236-3.997,9.959-10.806,9.959-18.213s-3.723-14.216-9.959-18.213l-52.186-33.449c-6.662-4.27-15.111-4.563-22.053-0.768
	c-6.941,3.796-11.254,11.069-11.254,18.98v66.899C218.269,205.361,222.582,212.634,229.523,216.43z M238.269,130.55
	c0-0.239,0-0.968,0.85-1.433c0.298-0.163,0.568-0.221,0.801-0.221c0.429,0,0.733,0.195,0.864,0.279l52.186,33.449
	c0.499,0.32,0.752,0.782,0.752,1.375s-0.253,1.055-0.752,1.375l-52.186,33.449c-0.201,0.129-0.814,0.523-1.665,0.058
	c-0.85-0.465-0.85-1.193-0.85-1.433V130.55z"/>
<path d="M256.013,274c60.654,0,110-49.346,110-110s-49.346-110-110-110s-110,49.346-110,110S195.359,274,256.013,274z M256.013,74
	c49.626,0,90,40.374,90,90s-40.374,90-90,90s-90-40.374-90-90S206.387,74,256.013,74z"/>
<path d="M448.013,287.7c2.63,0,5.21-1.07,7.07-2.93c1.86-1.86,2.93-4.44,2.93-7.07s-1.07-5.21-2.93-7.07s-4.44-2.93-7.07-2.93
	s-5.21,1.07-7.07,2.93c-1.86,1.86-2.93,4.44-2.93,7.07s1.07,5.21,2.93,7.07C442.803,286.63,445.383,287.7,448.013,287.7z"/>
<path d="M64.013,65c2.63,0,5.21-1.07,7.07-2.93s2.93-4.44,2.93-7.07s-1.07-5.21-2.93-7.07S66.643,45,64.013,45
	c-2.63,0-5.21,1.07-7.07,2.93s-2.93,4.44-2.93,7.07s1.07,5.21,2.93,7.07S61.383,65,64.013,65z"/>
<g>
</g>
<g>
</g>
<g>
</g>
<g>
</g>
<g>
</g>
<g>
</g>
<g>
</g>
<g>
</g>
<g>
</g>
<g>
</g>
<g>
</g>
<g>
</g>
<g>
</g>
<g>
</g>
<g>
</g>
</svg>
