<?xml version="1.0" encoding="utf-8"?>
<!-- Generator: Adobe Illustrator 21.1.0, SVG Export Plug-In . SVG Version: 6.00 Build 0)  -->
<svg version="1.1" id="elements" xmlns="http://www.w3.org/2000/svg" xmlns:xlink="http://www.w3.org/1999/xlink" x="0px" y="0px"
	 viewBox="0 0 1400 980" style="enable-background:new 0 0 1400 980;" xml:space="preserve">
<style type="text/css">
	.st0{fill:none;}
	.st1{fill:#231F20;}
	.st2{fill-rule:evenodd;clip-rule:evenodd;fill:#2EA2BD;}
	.st3{fill-rule:evenodd;clip-rule:evenodd;fill:url(#_x36__dpi_20_x25_);}
	.st4{clip-path:url(#SVGID_2_);}
	.st5{opacity:0.6;}
	.st6{fill-rule:evenodd;clip-rule:evenodd;fill:#20CAE6;}
	.st7{opacity:0.6;fill-rule:evenodd;clip-rule:evenodd;fill:#20CAE6;}
	.st8{fill:#20CAE6;}
	.st9{fill-rule:evenodd;clip-rule:evenodd;fill:#FFFFFF;}
	.st10{fill-rule:evenodd;clip-rule:evenodd;fill:#FFFFFF;stroke:#000000;stroke-width:1.1938;stroke-miterlimit:10;}
	.st11{fill-rule:evenodd;clip-rule:evenodd;fill:#18BFC9;}
	.st12{fill:#2D3E50;}
	.st13{fill-rule:evenodd;clip-rule:evenodd;fill:#EE5E3C;}
	.st14{fill-rule:evenodd;clip-rule:evenodd;fill:#D13311;}
	.st15{fill-rule:evenodd;clip-rule:evenodd;fill:#26575D;}
	.st16{display:none;fill-rule:evenodd;clip-rule:evenodd;fill:url(#SVGID_3_);}
	.st17{fill-rule:evenodd;clip-rule:evenodd;fill:#A4EAE8;}
	.st18{fill-rule:evenodd;clip-rule:evenodd;fill:#1F5253;}
	.st19{fill-rule:evenodd;clip-rule:evenodd;fill:#066A84;}
	.st20{fill-rule:evenodd;clip-rule:evenodd;fill:#20BDC6;}
	.st21{fill-rule:evenodd;clip-rule:evenodd;fill:#EE5F3E;}
	.st22{fill-rule:evenodd;clip-rule:evenodd;fill:#C44127;}
	.st23{fill-rule:evenodd;clip-rule:evenodd;fill:#71371C;}
	.st24{fill-rule:evenodd;clip-rule:evenodd;fill:#5A2714;}
	.st25{fill-rule:evenodd;clip-rule:evenodd;fill:#7C3C23;}
	.st26{fill-rule:evenodd;clip-rule:evenodd;fill:#F05D3C;}
	.st27{fill-rule:evenodd;clip-rule:evenodd;fill:#C24127;}
	.st28{fill-rule:evenodd;clip-rule:evenodd;fill:#086C86;}
	.st29{fill:#A4EAE9;}
	.st30{fill:#40D7D8;}
	.st31{opacity:0.5;fill:#FFFFFF;}
	.st32{opacity:0.8;fill:#FFFFFF;}
	.st33{opacity:0.9;fill:#FFFFFF;}
</style>
<pattern  width="48" height="48" patternUnits="userSpaceOnUse" id="_x36__dpi_20_x25_" viewBox="2.4 -50.4 48 48" style="overflow:visible;">
	<g>
		<rect x="2.4" y="-50.4" class="st0" width="48" height="48"/>
		<g>
			<circle class="st1" cx="26.4" cy="-2.4" r="2.4"/>
			<circle class="st1" cx="50.4" cy="-2.4" r="2.4"/>
			<circle class="st1" cx="26.4" cy="-26.4" r="2.4"/>
			<circle class="st1" cx="50.4" cy="-26.4" r="2.4"/>
			<circle class="st1" cx="38.4" cy="-14.4" r="2.4"/>
			<circle class="st1" cx="14.4" cy="-14.4" r="2.4"/>
			<circle class="st1" cx="38.4" cy="-38.4" r="2.4"/>
			<circle class="st1" cx="14.4" cy="-38.4" r="2.4"/>
		</g>
		<g>
			<circle class="st1" cx="2.4" cy="-2.4" r="2.4"/>
			<circle class="st1" cx="2.4" cy="-26.4" r="2.4"/>
		</g>
		<g>
			<circle class="st1" cx="26.4" cy="-50.4" r="2.4"/>
			<circle class="st1" cx="50.4" cy="-50.4" r="2.4"/>
		</g>
		<g>
			<circle class="st1" cx="2.4" cy="-50.4" r="2.4"/>
		</g>
	</g>
</pattern>
<rect class="st2" width="1400" height="980"/>
<rect class="st3" width="1400" height="980"/>
<g>
	<defs>
		<rect id="SVGID_1_" width="1400" height="980"/>
	</defs>
	<clipPath id="SVGID_2_">
		<use xlink:href="#SVGID_1_"  style="overflow:visible;"/>
	</clipPath>
	<g class="st4">
		<g class="st5">
			<path class="st6" d="M1029,401.6c-9.4,0-17-7.6-17-17c0-1.3,0.2-2.6,0.5-3.8c-15.7-11.1-34.3-18.4-54.3-20.8
				c-3,4.6-8.2,7.6-14.2,7.6c-5.9,0-11.1-3-14.2-7.6c-20.1,2.4-38.6,9.7-54.3,20.8c0.3,1.2,0.5,2.5,0.5,3.8c0,9.4-7.6,17-17,17
				c-9.4,0-17-7.6-17-17c0-9.4,7.6-17,17-17c1.7,0,3.2,0.3,4.8,0.8c18.7-13.7,40.9-22.7,65.2-25.4c2.8-5.6,8.5-9.4,15.1-9.4
				c6.6,0,12.3,3.8,15.1,9.4c24.2,2.7,46.5,11.7,65.2,25.4c1.5-0.4,3.1-0.8,4.8-0.8c9.4,0,17,7.6,17,17
				C1046,394,1038.3,401.6,1029,401.6z"/>
			<path class="st7" d="M943.9,435.6c32.9,0,59.5,26.7,59.5,59.5c0,32.9-26.7,59.5-59.5,59.5c-32.9,0-59.5-26.7-59.5-59.5
				C884.4,462.3,911,435.6,943.9,435.6z"/>
			<path class="st6" d="M943.9,393.1c0,0-34,76.6-34,102.1c0,25.5,68,25.5,68,0C977.9,469.6,943.9,393.1,943.9,393.1z"/>
			<path class="st6" d="M943.9,452.6c23.5,0,42.5,19,42.5,42.5c0,23.5-19,42.5-42.5,42.5c-23.5,0-42.5-19-42.5-42.5
				C901.4,471.7,920.4,452.6,943.9,452.6z"/>
			<path class="st6" d="M943.9,469.6c14.1,0,25.5,11.4,25.5,25.5c0,14.1-11.4,25.5-25.5,25.5c-14.1,0-25.5-11.4-25.5-25.5
				C918.4,481.1,929.8,469.6,943.9,469.6z"/>
		</g>
		<g class="st5">
			<path class="st6" d="M1128.2,881.8c4.4,1.9,9.6-0.1,11.5-4.5c1.9-4.4-0.1-9.6-4.5-11.5c-4.4-1.9-9.6,0.1-11.5,4.5
				C1121.8,874.8,1123.8,879.9,1128.2,881.8z M1213.9,837.6l-26.2,60.5c-3.8,8.8-14.1,12.9-22.9,9.1l-80.1-34.6
				c-8.8-3.8-12.9-14.1-9.1-22.9l58.9-136.1l3.5-8l6.9-16c3.8-8.8,14.1-12.9,22.9-9.1l50.6,21.9c-13.4,3.9-22.7,18.7-22.7,18.7
				l-30.2-13.1l-8-3.5c-4.4-1.9-9.6,0.1-11.5,4.5l-3.5,8l-6,13.8l-11.4,26.2l-27.7,64.1l-3.5,8c-1.9,4.4,0.1,9.6,4.5,11.5l8,3.5
				l64.1,27.7l8,3.5c4.4,1.9,9.6-0.1,11.5-4.5l3.5-8l11.8-27.2L1213.9,837.6z"/>
			<path class="st6" d="M1261.6,725.8c-34.4-14.9-74.3,0.9-89.1,35.3c-5,11.5-6.5,23.6-5.1,35.1l-21.8,27.1l33.1,2.9
				c7,10.3,16.8,18.7,29.1,24c34.4,14.9,74.3-0.9,89.1-35.3C1311.8,780.6,1296,740.7,1261.6,725.8z M1268.8,827.5l-20-21.4
				l-6.2,14.4l-58.5-25.3l18.1-41.9l58.5,25.3l-6.9,15.9l29.7-1L1268.8,827.5z"/>
			
				<rect x="1216.1" y="769.5" transform="matrix(0.3971 -0.9178 0.9178 0.3971 14.3342 1596.5127)" class="st6" width="12.2" height="35.7"/>
		</g>
		<g class="st5">
			<path class="st6" d="M583.5,146.8c4.4,1.9,9.6-0.1,11.5-4.5c1.9-4.4-0.1-9.6-4.5-11.5c-4.4-1.9-9.6,0.1-11.5,4.5
				C577,139.8,579.1,144.9,583.5,146.8z M669.2,102.6L643,163.1c-3.8,8.8-14.1,12.9-22.9,9.1L540,137.5c-8.8-3.8-12.9-14.1-9.1-22.9
				l58.9-136.1l3.5-8l6.9-16c3.8-8.8,14.1-12.9,22.9-9.1l50.6,21.9C660.3-28.9,651-14.1,651-14.1l-30.2-13.1l-8-3.5
				c-4.4-1.9-9.6,0.1-11.5,4.5l-3.5,8l-6,13.8L580.5,22L552.8,86l-3.5,8c-1.9,4.4,0.1,9.6,4.5,11.5l8,3.5l64.1,27.7l8,3.5
				c4.4,1.9,9.6-0.1,11.5-4.5l3.5-8l11.8-27.2L669.2,102.6z"/>
			<path class="st6" d="M716.9-9.2c-34.4-14.9-74.3,0.9-89.1,35.3c-5,11.5-6.5,23.6-5.1,35.1l-21.8,27.1l33.1,2.9
				c7,10.3,16.8,18.7,29.1,24c34.4,14.9,74.3-0.9,89.1-35.3C767.1,45.6,751.3,5.7,716.9-9.2z M724,92.5l-20-21.4l-6.2,14.4
				l-58.5-25.3l18.1-41.9l58.5,25.3L709,59.6l29.7-1L724,92.5z"/>
			
				<rect x="671.4" y="34.5" transform="matrix(0.3971 -0.9178 0.9178 0.3971 360.4651 653.3961)" class="st6" width="12.2" height="35.7"/>
		</g>
		<g class="st5">
			<path class="st6" d="M31.3,1031.7c4.4,1.9,9.6-0.1,11.5-4.5c1.9-4.4-0.1-9.6-4.5-11.5c-4.4-1.9-9.6,0.1-11.5,4.5
				C24.8,1024.6,26.9,1029.8,31.3,1031.7z M117,987.4l-26.2,60.5c-3.8,8.8-14.1,12.9-22.9,9.1l-80.1-34.6
				c-8.8-3.8-12.9-14.1-9.1-22.9l58.9-136.1l3.5-8l6.9-16c3.8-8.8,14.1-12.9,22.9-9.1l50.6,21.9c-13.4,3.9-22.7,18.7-22.7,18.7
				l-30.2-13.1l-8-3.5c-4.4-1.9-9.6,0.1-11.5,4.5l-3.5,8l-6,13.8l-11.4,26.2L0.6,970.9l-3.5,8c-1.9,4.4,0.1,9.6,4.5,11.5l8,3.5
				l64.1,27.7l8,3.5c4.4,1.9,9.6-0.1,11.5-4.5l3.5-8l11.8-27.2L117,987.4z"/>
			<path class="st6" d="M164.7,875.7c-34.4-14.9-74.3,0.9-89.1,35.3c-5,11.5-6.5,23.6-5.1,35.1l-21.8,27.1l33.1,2.9
				c7,10.3,16.8,18.7,29.1,24c34.4,14.9,74.3-0.9,89.1-35.3C214.9,930.5,199.1,890.5,164.7,875.7z M171.9,977.3l-20-21.4l-6.2,14.4
				l-58.5-25.3l18.1-41.9l58.5,25.3l-6.9,15.9l29.7-1L171.9,977.3z"/>
			
				<rect x="119.2" y="919.3" transform="matrix(0.3971 -0.9178 0.9178 0.3971 -784.5688 680.1216)" class="st6" width="12.2" height="35.7"/>
		</g>
		<g class="st5">
			<path class="st8" d="M387.3,810c0,0-13-0.7-11.6,15.1c0,0-4.9,2.3,0.9,9.8c0,0,2.3,6.3,5.8,9.2c0,0,0.2,3.3-2.6,4.9
				c0,0-14.5,2.8-11.3,14c0,0,5.4,3.8,26.2,0.1c0,0,20.7-1.8,25.3-7.2c0,0,0.5-10-12.4-10.3c0,0-5.6,0.2-6.2-4.5c0,0,3.2-4.2,3-10
				c0,0,3.9-6.1-1.8-10.3C402.4,820.8,400.2,808.1,387.3,810z"/>
			<path class="st8" d="M544.8,809.4c0,0-12.3-4.3-15.4,11.3c0,0-5.3,0.9-1.8,9.7c0,0,0.5,6.7,3.1,10.4c0,0-0.7,3.2-3.9,4
				c0,0-14.8-1.3-14.8,10.3c0,0,4.1,5.2,25.1,7.3c0,0,20.4,4,26.3,0c0,0,3.2-9.5-9.1-13.3c0,0-5.4-1.4-4.7-6.1c0,0,4.2-3.1,5.6-8.7
				c0,0,5.5-4.8,1.1-10.4C556.4,824,557.8,811.2,544.8,809.4z"/>
			<path class="st6" d="M432.9,909.3l-64,8.2c-7.1,0.9-13.5-4.1-14.4-11.2l-13.9-108.8l-0.8-6.4l-1.6-12.8
				c-0.9-7.1,4.1-13.5,11.2-14.4l64-8.2c7.1-0.9,13.5,4.1,14.4,11.2l1.6,12.8l0.8,6.4L444,894.9
				C444.9,901.9,439.9,908.4,432.9,909.3z M400,907c3.5-0.5,6-3.7,5.6-7.2c-0.5-3.5-3.7-6-7.2-5.6c-3.5,0.5-6,3.7-5.6,7.2
				C393.2,904.9,396.5,907.4,400,907z M391.6,764.9l-19.2,2.5c-1.8,0.2-3,1.8-2.8,3.6c0.2,1.8,1.8,3,3.6,2.8l19.2-2.5
				c1.8-0.2,3-1.9,2.8-3.6C395,765.9,393.3,764.7,391.6,764.9z M434.3,870.1l-6.6-51.2l-2.7-21l-1.4-11l-0.8-6.4
				c-0.5-3.5-3.7-6-7.2-5.6l-6.4,0.8l-51.2,6.6l-6.4,0.8c-3.5,0.5-6,3.7-5.6,7.2l0.8,6.4l1.4,11l2.7,21l6.6,51.2l0.8,6.4
				c0.5,3.5,3.7,6,7.2,5.6l6.4-0.8l51.2-6.6l6.4-0.8c3.5-0.5,6-3.7,5.6-7.2L434.3,870.1z"/>
			<path class="st6" d="M487.5,894.9L501.4,786l0.8-6.4l1.6-12.8c0.9-7.1,7.4-12.1,14.4-11.2l64,8.2c7.1,0.9,12.1,7.4,11.2,14.4
				l-1.6,12.8l-0.8,6.4l-13.9,108.8c-0.9,7.1-7.4,12.1-14.4,11.2l-64-8.2C491.5,908.4,486.5,901.9,487.5,894.9z M538.7,901.4
				c0.5-3.5-2-6.8-5.6-7.2c-3.5-0.5-6.8,2-7.2,5.6c-0.5,3.5,2,6.8,5.6,7.2C535,907.4,538.2,904.9,538.7,901.4z M536.3,767.7
				c-0.2,1.8,1,3.4,2.8,3.6l19.2,2.5c1.8,0.2,3.4-1,3.6-2.8c0.2-1.8-1-3.4-2.8-3.6l-19.2-2.5C538.1,764.7,536.5,765.9,536.3,767.7z
				 M496.3,876.5c-0.5,3.5,2,6.8,5.6,7.2l6.4,0.8l51.2,6.6l6.4,0.8c3.5,0.5,6.8-2,7.2-5.6l0.8-6.4l6.6-51.2l2.7-21l1.4-11l0.8-6.4
				c0.5-3.5-2-6.8-5.6-7.2l-6.4-0.8l-51.2-6.6l-6.4-0.8c-3.5-0.5-6.8,2-7.2,5.6l-0.8,6.4l-1.4,11l-2.7,21l-6.6,51.2L496.3,876.5z"/>
			<g>
				<g>
					<path class="st8" d="M383.2,746.8c0,0,0-0.4,0.1-1c0-0.6,0.2-1.3,0.3-2.1c0.3-1.5,0.6-3.1,0.6-3.1l2.5,1.1c0,0-0.8,1.2-1.7,2.5
						c-0.4,0.6-0.9,1.2-1.2,1.7C383.5,746.5,383.2,746.8,383.2,746.8z"/>
					<path class="st8" d="M388.1,728.8c0,0,0.3-0.7,0.8-1.7c0.2-0.5,0.5-1.1,0.8-1.8c0.1-0.3,0.3-0.7,0.5-1c0.2-0.3,0.3-0.7,0.5-1
						c0.8-1.4,1.5-2.8,2.1-3.9c0.6-1.1,1-1.8,1-1.8l8.4,6.4c0,0-0.5,0.5-1.2,1.3c-0.7,0.8-1.7,1.8-2.7,2.8c-0.3,0.2-0.5,0.6-0.7,0.8
						c-0.2,0.3-0.5,0.6-0.7,0.8c-0.5,0.5-0.9,1-1.3,1.5c-0.8,0.8-1.3,1.4-1.3,1.4L388.1,728.8z"/>
					<path class="st8" d="M401,706.9c0,0,0.5-0.6,1.2-1.4c0.4-0.4,0.8-0.9,1.3-1.5c0.2-0.3,0.5-0.5,0.7-0.8c0.2-0.3,0.5-0.6,0.7-0.9
						c1.2-1.2,2.4-2.4,3.3-3.3c0.9-0.9,1.5-1.5,1.5-1.5l9.7,12.3c0,0-0.5,0.4-1.3,0.9c-0.8,0.6-1.9,1.3-3,2
						c-0.3,0.2-0.6,0.5-0.9,0.7c-0.3,0.2-0.6,0.5-0.8,0.7c-0.6,0.4-1.1,0.8-1.5,1.2c-0.9,0.7-1.5,1.2-1.5,1.2L401,706.9z"/>
					<path class="st8" d="M420.3,689.2c0,0,0.6-0.4,1.6-1c0.5-0.3,1-0.6,1.6-1c0.3-0.2,0.6-0.4,0.9-0.6c0.3-0.2,0.6-0.4,1-0.6
						c3.1-1.6,6.3-3.1,6.3-3.1l7,17.4c0,0-2.3,0.9-4.7,1.8c-0.3,0.1-0.7,0.3-1,0.5c-0.3,0.2-0.7,0.3-1,0.5c-0.6,0.3-1.2,0.6-1.7,0.8
						c-1,0.5-1.7,0.8-1.7,0.8L420.3,689.2z"/>
					<path class="st8" d="M444.6,678.5c0,0,0.7-0.2,1.8-0.4c0.5-0.1,1.2-0.3,1.9-0.4c0.3-0.1,0.7-0.2,1.1-0.2
						c0.4-0.1,0.7-0.2,1.1-0.2c3.5-0.5,6.9-1,6.9-1l2,19.8c0,0-2.5,0.3-5,0.6c-2.9,0.5-5.9,1.1-5.9,1.1L444.6,678.5z"/>
					<path class="st8" d="M471.8,676c0,0,0.7,0.1,1.8,0.3c0.6,0.1,1.2,0.2,1.9,0.3c0.3,0.1,0.7,0.1,1.1,0.2c0.4,0.1,0.8,0.2,1.2,0.3
						c3.4,0.8,6.7,1.6,6.7,1.6l-5,18.9c0,0-2.5-0.5-5-1c-0.3-0.1-0.6-0.1-0.9-0.2c-0.4-0.1-0.7-0.1-1.1-0.1
						c-0.7-0.1-1.3-0.2-1.9-0.3c-1.1-0.2-1.9-0.3-1.9-0.3L471.8,676z"/>
					<path class="st8" d="M497.2,683.3c0,0,0.7,0.3,1.7,0.8c0.5,0.3,1.1,0.5,1.7,0.9c0.3,0.2,0.6,0.3,1,0.5c0.3,0.2,0.6,0.3,1,0.5
						c3,1.7,5.9,3.4,5.9,3.4l-8.5,15.3c0,0-2.4-1-4.7-2.1c-0.3-0.1-0.7-0.3-1-0.4c-0.3-0.1-0.7-0.3-1-0.4c-0.7-0.3-1.3-0.5-1.8-0.7
						c-1-0.4-1.7-0.7-1.7-0.7L497.2,683.3z"/>
					<path class="st8" d="M519.2,697.5c0,0,0.5,0.5,1.4,1.3c0.4,0.4,0.9,0.8,1.4,1.3c0.3,0.2,0.5,0.5,0.8,0.8
						c0.3,0.3,0.5,0.5,0.8,0.8c1.1,1.2,2.3,2.5,3.1,3.4c0.9,0.9,1.4,1.6,1.4,1.6l-9.5,9.6c0,0-0.6-0.4-1.3-1
						c-0.8-0.6-1.8-1.4-2.9-2.2c-1.2-0.8-2.5-1.7-3.4-2.3c-0.9-0.6-1.6-1.1-1.6-1.1L519.2,697.5z"/>
					<path class="st8" d="M535.6,717.4c0,0,0.4,0.7,0.9,1.7c0.3,0.5,0.6,1.1,0.9,1.7c0.3,0.6,0.7,1.3,1,2c1.4,3,2.6,5.9,2.6,5.9
						l-6.2,3.5c0,0-1.9-2.1-3.7-4.3c-1-1.1-2.1-2.2-2.9-3c-0.8-0.8-1.3-1.4-1.3-1.4L535.6,717.4z"/>
					<path class="st8" d="M544.4,740.7c0,0,0.3,1.5,0.5,3c0.2,1.5,0.4,3.1,0.4,3.1s-0.9-1.3-1.7-2.5c-0.9-1.3-1.7-2.6-1.7-2.6
						L544.4,740.7z"/>
				</g>
			</g>
		</g>
		<g class="st5">
			<path class="st8" d="M-52.8-47.7c0,0-13-0.7-11.6,15.1c0,0-4.9,2.3,0.9,9.8c0,0,2.3,6.3,5.8,9.2c0,0,0.2,3.3-2.6,4.9
				c0,0-14.5,2.8-11.3,14c0,0,5.4,3.8,26.2,0.1c0,0,20.7-1.8,25.3-7.2c0,0,0.5-10-12.4-10.3c0,0-5.6,0.2-6.2-4.5c0,0,3.2-4.2,3-10
				c0,0,3.9-6.1-1.8-10.3C-37.7-36.9-39.8-49.6-52.8-47.7z"/>
			<path class="st8" d="M104.7-48.3c0,0-12.3-4.3-15.4,11.3c0,0-5.3,0.9-1.8,9.7c0,0,0.5,6.7,3.1,10.4c0,0-0.7,3.2-3.9,4
				c0,0-14.8-1.3-14.8,10.3c0,0,4.1,5.2,25.1,7.3c0,0,20.4,4,26.3,0c0,0,3.2-9.5-9.1-13.3c0,0-5.4-1.4-4.7-6.1c0,0,4.2-3.1,5.6-8.7
				c0,0,5.5-4.8,1.1-10.4C116.3-33.7,117.8-46.5,104.7-48.3z"/>
			<path class="st6" d="M-7.2,51.6l-64,8.2c-7.1,0.9-13.5-4.1-14.4-11.2L-99.7-60.2l-0.8-6.4l-1.6-12.8C-103-86.5-98-93-91-93.9
				l64-8.2c7.1-0.9,13.5,4.1,14.4,11.2l1.6,12.8l0.8,6.4L3.9,37.1C4.8,44.2-0.2,50.7-7.2,51.6z M-40.1,49.3c3.5-0.5,6-3.7,5.6-7.2
				c-0.5-3.5-3.7-6-7.2-5.6c-3.5,0.5-6,3.7-5.6,7.2C-46.8,47.2-43.6,49.7-40.1,49.3z M-48.5-92.8l-19.2,2.5c-1.8,0.2-3,1.8-2.8,3.6
				c0.2,1.8,1.8,3,3.6,2.8l19.2-2.5c1.8-0.2,3-1.9,2.8-3.6C-45.1-91.8-46.7-93-48.5-92.8z M-5.8,12.4l-6.6-51.2l-2.7-21l-1.4-11
				l-0.8-6.4c-0.5-3.5-3.7-6-7.2-5.6l-6.4,0.8l-51.2,6.6l-6.4,0.8c-3.5,0.5-6,3.7-5.6,7.2l0.8,6.4l1.4,11l2.7,21l6.6,51.2l0.8,6.4
				c0.5,3.5,3.7,6,7.2,5.6l6.4-0.8l51.2-6.6l6.4-0.8c3.5-0.5,6-3.7,5.6-7.2L-5.8,12.4z"/>
			<path class="st6" d="M47.4,37.1L61.3-71.7l0.8-6.4l1.6-12.8c0.9-7.1,7.4-12.1,14.4-11.2l64,8.2c7.1,0.9,12.1,7.4,11.2,14.4
				l-1.6,12.8l-0.8,6.4L137,48.6c-0.9,7.1-7.4,12.1-14.4,11.2l-64-8.2C51.5,50.7,46.5,44.2,47.4,37.1z M98.6,43.7
				c0.5-3.5-2-6.8-5.6-7.2c-3.5-0.5-6.8,2-7.2,5.6c-0.5,3.5,2,6.8,5.6,7.2C94.9,49.7,98.1,47.2,98.6,43.7z M96.2-90
				c-0.2,1.8,1,3.4,2.8,3.6l19.2,2.5c1.8,0.2,3.4-1,3.6-2.8c0.2-1.8-1-3.4-2.8-3.6l-19.2-2.5C98-93,96.4-91.8,96.2-90z M56.2,18.8
				c-0.5,3.5,2,6.8,5.6,7.2l6.4,0.8l51.2,6.6l6.4,0.8c3.5,0.5,6.8-2,7.2-5.6l0.8-6.4l6.6-51.2l2.7-21l1.4-11l0.8-6.4
				c0.5-3.5-2-6.8-5.6-7.2l-6.4-0.8L82.1-82l-6.4-0.8c-3.5-0.5-6.8,2-7.2,5.6l-0.8,6.4l-1.4,11l-2.7,21L57,12.4L56.2,18.8z"/>
			<g>
				<g>
					<path class="st8" d="M-56.8-110.9c0,0,0-0.4,0.1-1c0-0.6,0.2-1.3,0.3-2.1c0.3-1.5,0.6-3.1,0.6-3.1l2.5,1.1c0,0-0.8,1.2-1.7,2.5
						c-0.4,0.6-0.9,1.2-1.2,1.7C-56.6-111.2-56.8-110.9-56.8-110.9z"/>
					<path class="st8" d="M-51.9-128.9c0,0,0.3-0.7,0.8-1.7c0.2-0.5,0.5-1.1,0.8-1.8c0.1-0.3,0.3-0.7,0.5-1c0.2-0.3,0.3-0.7,0.5-1
						c0.8-1.4,1.5-2.8,2.1-3.9c0.6-1.1,1-1.8,1-1.8l8.4,6.4c0,0-0.5,0.5-1.2,1.3c-0.7,0.8-1.7,1.8-2.7,2.8c-0.3,0.2-0.5,0.6-0.7,0.8
						c-0.2,0.3-0.5,0.6-0.7,0.8c-0.5,0.5-0.9,1-1.3,1.5c-0.8,0.8-1.3,1.4-1.3,1.4L-51.9-128.9z"/>
					<path class="st8" d="M-39.1-150.8c0,0,0.5-0.6,1.2-1.4c0.4-0.4,0.8-0.9,1.3-1.5c0.2-0.3,0.5-0.5,0.7-0.8
						c0.2-0.3,0.5-0.6,0.7-0.9c1.2-1.2,2.4-2.4,3.3-3.3c0.9-0.9,1.5-1.5,1.5-1.5l9.7,12.3c0,0-0.5,0.4-1.3,0.9c-0.8,0.6-1.9,1.3-3,2
						c-0.3,0.2-0.6,0.5-0.9,0.7c-0.3,0.2-0.6,0.5-0.8,0.7c-0.6,0.4-1.1,0.8-1.5,1.2c-0.9,0.7-1.5,1.2-1.5,1.2L-39.1-150.8z"/>
					<path class="st8" d="M-19.8-168.5c0,0,0.6-0.4,1.6-1c0.5-0.3,1-0.6,1.6-1c0.3-0.2,0.6-0.4,0.9-0.6c0.3-0.2,0.6-0.4,1-0.6
						c3.1-1.6,6.3-3.1,6.3-3.1l7,17.4c0,0-2.3,0.9-4.7,1.8c-0.3,0.1-0.7,0.3-1,0.5c-0.3,0.2-0.7,0.3-1,0.5c-0.6,0.3-1.2,0.6-1.7,0.8
						c-1,0.5-1.7,0.8-1.7,0.8L-19.8-168.5z"/>
					<path class="st8" d="M4.5-179.2c0,0,0.7-0.2,1.8-0.4c0.5-0.1,1.2-0.3,1.9-0.4c0.3-0.1,0.7-0.2,1.1-0.2c0.4-0.1,0.7-0.2,1.1-0.2
						c3.5-0.5,6.9-1,6.9-1l2,19.8c0,0-2.5,0.3-5,0.6c-2.9,0.5-5.9,1.1-5.9,1.1L4.5-179.2z"/>
					<path class="st8" d="M31.7-181.7c0,0,0.7,0.1,1.8,0.3c0.6,0.1,1.2,0.2,1.9,0.3c0.3,0.1,0.7,0.1,1.1,0.2
						c0.4,0.1,0.8,0.2,1.2,0.3c3.4,0.8,6.7,1.6,6.7,1.6l-5,18.9c0,0-2.5-0.5-5-1c-0.3-0.1-0.6-0.1-0.9-0.2c-0.4-0.1-0.7-0.1-1.1-0.1
						c-0.7-0.1-1.3-0.2-1.9-0.3c-1.1-0.2-1.9-0.3-1.9-0.3L31.7-181.7z"/>
					<path class="st8" d="M57.1-174.4c0,0,0.7,0.3,1.7,0.8c0.5,0.3,1.1,0.5,1.7,0.9c0.3,0.2,0.6,0.3,1,0.5c0.3,0.2,0.6,0.3,1,0.5
						c3,1.7,5.9,3.4,5.9,3.4L59.9-153c0,0-2.4-1-4.7-2.1c-0.3-0.1-0.7-0.3-1-0.4c-0.3-0.1-0.7-0.3-1-0.4c-0.7-0.3-1.3-0.5-1.8-0.7
						c-1-0.4-1.7-0.7-1.7-0.7L57.1-174.4z"/>
					<path class="st8" d="M79.1-160.2c0,0,0.5,0.5,1.4,1.3c0.4,0.4,0.9,0.8,1.4,1.3c0.3,0.2,0.5,0.5,0.8,0.8
						c0.3,0.3,0.5,0.5,0.8,0.8c1.1,1.2,2.3,2.5,3.1,3.4c0.9,0.9,1.4,1.6,1.4,1.6l-9.5,9.6c0,0-0.6-0.4-1.3-1
						c-0.8-0.6-1.8-1.4-2.9-2.2c-1.2-0.8-2.5-1.7-3.4-2.3c-0.9-0.6-1.6-1.1-1.6-1.1L79.1-160.2z"/>
					<path class="st8" d="M95.5-140.4c0,0,0.4,0.7,0.9,1.7c0.3,0.5,0.6,1.1,0.9,1.7c0.3,0.6,0.7,1.3,1,2c1.4,3,2.6,5.9,2.6,5.9
						l-6.2,3.5c0,0-1.9-2.1-3.7-4.3c-1-1.1-2.1-2.2-2.9-3c-0.8-0.8-1.3-1.4-1.3-1.4L95.5-140.4z"/>
					<path class="st8" d="M104.3-117c0,0,0.3,1.5,0.5,3c0.2,1.5,0.4,3.1,0.4,3.1s-0.9-1.3-1.7-2.5c-0.9-1.3-1.7-2.6-1.7-2.6
						L104.3-117z"/>
				</g>
			</g>
		</g>
		<g class="st5">
			<path class="st8" d="M1369.8,266.7c0,0-13-0.7-11.6,15.1c0,0-4.9,2.3,0.9,9.8c0,0,2.3,6.3,5.8,9.2c0,0,0.2,3.3-2.6,4.9
				c0,0-14.5,2.8-11.3,14c0,0,5.4,3.8,26.2,0.1c0,0,20.7-1.8,25.3-7.2c0,0,0.5-10-12.4-10.3c0,0-5.6,0.2-6.2-4.5c0,0,3.2-4.2,3-10
				c0,0,3.9-6.1-1.8-10.3C1385,277.4,1382.8,264.7,1369.8,266.7z"/>
			<path class="st8" d="M1527.4,266.1c0,0-12.3-4.3-15.4,11.3c0,0-5.3,0.9-1.8,9.7c0,0,0.5,6.7,3.1,10.4c0,0-0.7,3.2-3.9,4
				c0,0-14.8-1.3-14.8,10.3c0,0,4.1,5.2,25.1,7.3c0,0,20.4,4,26.3,0c0,0,3.2-9.5-9.1-13.3c0,0-5.4-1.4-4.7-6.1c0,0,4.2-3.1,5.6-8.7
				c0,0,5.5-4.8,1.1-10.4C1539,280.6,1540.4,267.8,1527.4,266.1z"/>
			<path class="st6" d="M1415.4,365.9l-64,8.2c-7.1,0.9-13.5-4.1-14.4-11.2L1323,254.1l-0.8-6.4l-1.6-12.8
				c-0.9-7.1,4.1-13.5,11.2-14.4l64-8.2c7.1-0.9,13.5,4.1,14.4,11.2l1.6,12.8l0.8,6.4l13.9,108.8
				C1427.5,358.5,1422.5,365,1415.4,365.9z M1382.6,363.6c3.5-0.5,6-3.7,5.6-7.2c-0.5-3.5-3.7-6-7.2-5.6c-3.5,0.5-6,3.7-5.6,7.2
				C1375.8,361.6,1379,364.1,1382.6,363.6z M1374.1,221.5l-19.2,2.5c-1.8,0.2-3,1.8-2.8,3.6c0.2,1.8,1.8,3,3.6,2.8l19.2-2.5
				c1.8-0.2,3-1.9,2.8-3.6C1377.5,222.6,1375.9,221.3,1374.1,221.5z M1416.9,326.7l-6.6-51.2l-2.7-21l-1.4-11l-0.8-6.4
				c-0.5-3.5-3.7-6-7.2-5.6l-6.4,0.8l-51.2,6.6l-6.4,0.8c-3.5,0.5-6,3.7-5.6,7.2l0.8,6.4l1.4,11l2.7,21l6.6,51.2l0.8,6.4
				c0.5,3.5,3.7,6,7.2,5.6l6.4-0.8l51.2-6.6l6.4-0.8c3.5-0.5,6-3.7,5.6-7.2L1416.9,326.7z"/>
			<path class="st6" d="M1470,351.5l13.9-108.8l0.8-6.4l1.6-12.8c0.9-7.1,7.4-12.1,14.4-11.2l64,8.2c7.1,0.9,12.1,7.4,11.2,14.4
				l-1.6,12.8l-0.8,6.4L1559.6,363c-0.9,7.1-7.4,12.1-14.4,11.2l-64-8.2C1474.1,365,1469.1,358.5,1470,351.5z M1521.2,358
				c0.5-3.5-2-6.8-5.6-7.2s-6.8,2-7.2,5.6c-0.5,3.5,2,6.8,5.6,7.2C1517.5,364.1,1520.8,361.6,1521.2,358z M1518.8,224.3
				c-0.2,1.8,1,3.4,2.8,3.6l19.2,2.5c1.8,0.2,3.4-1,3.6-2.8c0.2-1.8-1-3.4-2.8-3.6l-19.2-2.5
				C1520.7,221.3,1519.1,222.6,1518.8,224.3z M1478.9,333.1c-0.5,3.5,2,6.8,5.6,7.2l6.4,0.8l51.2,6.6l6.4,0.8c3.5,0.5,6.8-2,7.2-5.6
				l0.8-6.4l6.6-51.2l2.7-21l1.4-11l0.8-6.4c0.5-3.5-2-6.8-5.6-7.2l-6.4-0.8l-51.2-6.6l-6.4-0.8c-3.5-0.5-6.8,2-7.2,5.6l-0.8,6.4
				l-1.4,11l-2.7,21l-6.6,51.2L1478.9,333.1z"/>
			<g>
				<g>
					<path class="st8" d="M1365.8,203.4c0,0,0-0.4,0.1-1c0-0.6,0.2-1.3,0.3-2.1c0.3-1.5,0.6-3.1,0.6-3.1l2.5,1.1
						c0,0-0.8,1.2-1.7,2.5c-0.4,0.6-0.9,1.2-1.2,1.7C1366,203.1,1365.8,203.4,1365.8,203.4z"/>
					<path class="st8" d="M1370.7,185.4c0,0,0.3-0.7,0.8-1.7c0.2-0.5,0.5-1.1,0.8-1.8c0.1-0.3,0.3-0.7,0.5-1c0.2-0.3,0.3-0.7,0.5-1
						c0.8-1.4,1.5-2.8,2.1-3.9c0.6-1.1,1-1.8,1-1.8l8.4,6.4c0,0-0.5,0.5-1.2,1.3c-0.7,0.8-1.7,1.8-2.7,2.8c-0.3,0.2-0.5,0.6-0.7,0.8
						c-0.2,0.3-0.5,0.6-0.7,0.8c-0.5,0.5-0.9,1-1.3,1.5c-0.8,0.8-1.3,1.4-1.3,1.4L1370.7,185.4z"/>
					<path class="st8" d="M1383.6,163.5c0,0,0.5-0.6,1.2-1.4c0.4-0.4,0.8-0.9,1.3-1.5c0.2-0.3,0.5-0.5,0.7-0.8
						c0.2-0.3,0.5-0.6,0.7-0.9c1.2-1.2,2.4-2.4,3.3-3.3c0.9-0.9,1.5-1.5,1.5-1.5l9.7,12.3c0,0-0.5,0.4-1.3,0.9c-0.8,0.6-1.9,1.3-3,2
						c-0.3,0.2-0.6,0.5-0.9,0.7c-0.3,0.2-0.6,0.5-0.8,0.7c-0.6,0.4-1.1,0.8-1.5,1.2c-0.9,0.7-1.5,1.2-1.5,1.2L1383.6,163.5z"/>
					<path class="st8" d="M1402.9,145.9c0,0,0.6-0.4,1.6-1c0.5-0.3,1-0.6,1.6-1c0.3-0.2,0.6-0.4,0.9-0.6c0.3-0.2,0.6-0.4,1-0.6
						c3.1-1.6,6.3-3.1,6.3-3.1l7,17.4c0,0-2.3,0.9-4.7,1.8c-0.3,0.1-0.7,0.3-1,0.5c-0.3,0.2-0.7,0.3-1,0.5c-0.6,0.3-1.2,0.6-1.7,0.8
						c-1,0.5-1.7,0.8-1.7,0.8L1402.9,145.9z"/>
					<path class="st8" d="M1427.2,135.1c0,0,0.7-0.2,1.8-0.4c0.5-0.1,1.2-0.3,1.9-0.4c0.3-0.1,0.7-0.2,1.1-0.2
						c0.4-0.1,0.7-0.2,1.1-0.2c3.4-0.5,6.9-1,6.9-1l2,19.8c0,0-2.5,0.3-5,0.6c-2.9,0.5-5.9,1.1-5.9,1.1L1427.2,135.1z"/>
					<path class="st8" d="M1454.4,132.6c0,0,0.7,0.1,1.8,0.3c0.6,0.1,1.2,0.2,1.9,0.3c0.3,0.1,0.7,0.1,1.1,0.2
						c0.4,0.1,0.8,0.2,1.2,0.3c3.4,0.8,6.7,1.6,6.7,1.6l-5,18.9c0,0-2.5-0.5-5-1c-0.3-0.1-0.6-0.1-0.9-0.2c-0.4-0.1-0.7-0.1-1.1-0.1
						c-0.7-0.1-1.3-0.2-1.9-0.3c-1.1-0.2-1.9-0.3-1.9-0.3L1454.4,132.6z"/>
					<path class="st8" d="M1479.8,140c0,0,0.7,0.3,1.7,0.8c0.5,0.3,1.1,0.5,1.7,0.9c0.3,0.2,0.6,0.3,1,0.5c0.3,0.2,0.6,0.3,1,0.5
						c3,1.7,5.9,3.4,5.9,3.4l-8.5,15.3c0,0-2.4-1-4.7-2.1c-0.3-0.1-0.7-0.3-1-0.4c-0.3-0.1-0.7-0.3-1-0.4c-0.7-0.3-1.3-0.5-1.8-0.7
						c-1-0.4-1.7-0.7-1.7-0.7L1479.8,140z"/>
					<path class="st8" d="M1501.8,154.1c0,0,0.5,0.5,1.4,1.3c0.4,0.4,0.9,0.8,1.4,1.3c0.3,0.2,0.5,0.5,0.8,0.8
						c0.3,0.3,0.5,0.5,0.8,0.8c1.1,1.2,2.3,2.5,3.1,3.4c0.9,0.9,1.4,1.6,1.4,1.6l-9.5,9.6c0,0-0.6-0.4-1.3-1
						c-0.8-0.6-1.8-1.4-2.9-2.2c-1.2-0.8-2.5-1.7-3.4-2.3c-0.9-0.6-1.5-1.1-1.5-1.1L1501.8,154.1z"/>
					<path class="st8" d="M1518.1,174c0,0,0.4,0.7,0.9,1.7c0.3,0.5,0.6,1.1,0.9,1.7c0.3,0.6,0.7,1.3,1,2c1.4,3,2.6,5.9,2.6,5.9
						l-6.2,3.5c0,0-1.9-2.1-3.7-4.3c-1-1.1-2.1-2.2-2.9-3c-0.8-0.8-1.3-1.4-1.3-1.4L1518.1,174z"/>
					<path class="st8" d="M1526.9,197.3c0,0,0.3,1.5,0.5,3c0.2,1.5,0.4,3.1,0.4,3.1s-0.9-1.3-1.7-2.5c-0.9-1.3-1.7-2.6-1.7-2.6
						L1526.9,197.3z"/>
				</g>
			</g>
		</g>
		<g class="st5">
			<path class="st8" d="M925,1005.6c0,0-13-0.7-11.6,15.1c0,0-4.9,2.3,0.9,9.8c0,0,2.3,6.3,5.8,9.2c0,0,0.2,3.3-2.6,4.9
				c0,0-14.5,2.8-11.3,14c0,0,5.4,3.8,26.2,0.1c0,0,20.7-1.8,25.3-7.2c0,0,0.5-10-12.4-10.3c0,0-5.6,0.2-6.2-4.5c0,0,3.2-4.2,3-10
				c0,0,3.9-6.1-1.8-10.3C940.1,1016.3,937.9,1003.6,925,1005.6z"/>
			<path class="st8" d="M1082.5,1005c0,0-12.3-4.3-15.4,11.3c0,0-5.3,0.9-1.8,9.7c0,0,0.5,6.7,3.1,10.4c0,0-0.7,3.2-3.9,4
				c0,0-14.8-1.3-14.8,10.3c0,0,4.1,5.2,25.1,7.3c0,0,20.4,4,26.3,0c0,0,3.2-9.5-9.1-13.3c0,0-5.4-1.4-4.7-6.1c0,0,4.2-3.1,5.6-8.7
				c0,0,5.5-4.8,1.1-10.4C1094.1,1019.5,1095.5,1006.7,1082.5,1005z"/>
			<path class="st6" d="M970.6,1104.8l-64,8.2c-7.1,0.9-13.5-4.1-14.4-11.2L878.1,993l-0.8-6.4l-1.6-12.8
				c-0.9-7.1,4.1-13.5,11.2-14.4l64-8.2c7.1-0.9,13.5,4.1,14.4,11.2l1.6,12.8l0.8,6.4l13.9,108.8
				C982.6,1097.5,977.6,1103.9,970.6,1104.8z M937.7,1102.5c3.5-0.5,6-3.7,5.6-7.2c-0.5-3.5-3.7-6-7.2-5.6c-3.5,0.5-6,3.7-5.6,7.2
				C930.9,1100.5,934.2,1103,937.7,1102.5z M929.3,960.4l-19.2,2.5c-1.8,0.2-3,1.8-2.8,3.6c0.2,1.8,1.8,3,3.6,2.8l19.2-2.5
				c1.8-0.2,3-1.9,2.8-3.6C932.7,961.5,931.1,960.2,929.3,960.4z M972,1065.6l-6.6-51.2l-2.7-21l-1.4-11l-0.8-6.4
				c-0.5-3.5-3.7-6-7.2-5.6l-6.4,0.8l-51.2,6.6l-6.4,0.8c-3.5,0.5-6,3.7-5.6,7.2l0.8,6.4l1.4,11l2.7,21l6.6,51.2l0.8,6.4
				c0.5,3.5,3.7,6,7.2,5.6l6.4-0.8l51.2-6.6l6.4-0.8c3.5-0.5,6-3.7,5.6-7.2L972,1065.6z"/>
			<path class="st6" d="M1025.2,1090.4l13.9-108.8l0.8-6.4l1.6-12.8c0.9-7.1,7.4-12.1,14.4-11.2l64,8.2c7.1,0.9,12.1,7.4,11.2,14.4
				l-1.6,12.8l-0.8,6.4l-13.9,108.8c-0.9,7.1-7.4,12.1-14.4,11.2l-64-8.2C1029.2,1103.9,1024.3,1097.5,1025.2,1090.4z M1076.4,1097
				c0.5-3.5-2-6.8-5.6-7.2s-6.8,2-7.2,5.6c-0.5,3.5,2,6.8,5.6,7.2C1072.7,1103,1075.9,1100.5,1076.4,1097z M1074,963.2
				c-0.2,1.8,1,3.4,2.8,3.6l19.2,2.5c1.8,0.2,3.4-1,3.6-2.8c0.2-1.8-1-3.4-2.8-3.6l-19.2-2.5C1075.8,960.2,1074.2,961.5,1074,963.2z
				 M1034,1072c-0.5,3.5,2,6.8,5.6,7.2l6.4,0.8l51.2,6.6l6.4,0.8c3.5,0.5,6.8-2,7.2-5.6l0.8-6.4l6.6-51.2l2.7-21l1.4-11l0.8-6.4
				c0.5-3.5-2-6.8-5.6-7.2l-6.4-0.8l-51.2-6.6l-6.4-0.8c-3.5-0.5-6.8,2-7.2,5.6l-0.8,6.4l-1.4,11l-2.7,21l-6.6,51.2L1034,1072z"/>
			<g>
				<g>
					<path class="st8" d="M920.9,942.3c0,0,0-0.4,0.1-1c0-0.6,0.2-1.3,0.3-2.1c0.3-1.5,0.6-3.1,0.6-3.1l2.5,1.1c0,0-0.8,1.2-1.7,2.5
						c-0.4,0.6-0.9,1.2-1.2,1.7C921.2,942,920.9,942.3,920.9,942.3z"/>
					<path class="st8" d="M925.9,924.3c0,0,0.3-0.7,0.8-1.7c0.2-0.5,0.5-1.1,0.8-1.8c0.1-0.3,0.3-0.7,0.5-1c0.2-0.3,0.3-0.7,0.5-1
						c0.8-1.4,1.5-2.8,2.1-3.9c0.6-1.1,1-1.8,1-1.8l8.4,6.4c0,0-0.5,0.5-1.2,1.3c-0.7,0.8-1.7,1.8-2.7,2.8c-0.3,0.2-0.5,0.6-0.7,0.8
						c-0.2,0.3-0.5,0.6-0.7,0.8c-0.5,0.5-0.9,1-1.3,1.5c-0.8,0.8-1.3,1.4-1.3,1.4L925.9,924.3z"/>
					<path class="st8" d="M938.7,902.4c0,0,0.5-0.6,1.2-1.4c0.4-0.4,0.8-0.9,1.3-1.5c0.2-0.3,0.5-0.5,0.7-0.8
						c0.2-0.3,0.5-0.6,0.7-0.9c1.2-1.2,2.4-2.4,3.3-3.3c0.9-0.9,1.5-1.5,1.5-1.5l9.7,12.3c0,0-0.5,0.4-1.3,0.9c-0.8,0.6-1.9,1.3-3,2
						c-0.3,0.2-0.6,0.5-0.9,0.7c-0.3,0.2-0.6,0.5-0.8,0.7c-0.6,0.4-1.1,0.8-1.5,1.2c-0.9,0.7-1.5,1.2-1.5,1.2L938.7,902.4z"/>
					<path class="st8" d="M958,884.8c0,0,0.6-0.4,1.6-1c0.5-0.3,1-0.6,1.6-1c0.3-0.2,0.6-0.4,0.9-0.6c0.3-0.2,0.6-0.4,1-0.6
						c3.1-1.6,6.3-3.1,6.3-3.1l7,17.4c0,0-2.3,0.9-4.7,1.8c-0.3,0.1-0.7,0.3-1,0.5c-0.3,0.2-0.7,0.3-1,0.5c-0.6,0.3-1.2,0.6-1.7,0.8
						c-1,0.5-1.7,0.8-1.7,0.8L958,884.8z"/>
					<path class="st8" d="M982.3,874c0,0,0.7-0.2,1.8-0.4c0.5-0.1,1.2-0.3,1.9-0.4c0.3-0.1,0.7-0.2,1.1-0.2c0.4-0.1,0.7-0.2,1.1-0.2
						c3.4-0.5,6.9-1,6.9-1l2,19.8c0,0-2.5,0.3-5,0.6c-2.9,0.5-5.9,1.1-5.9,1.1L982.3,874z"/>
					<path class="st8" d="M1009.5,871.5c0,0,0.7,0.1,1.8,0.3c0.6,0.1,1.2,0.2,1.9,0.3c0.3,0.1,0.7,0.1,1.1,0.2
						c0.4,0.1,0.8,0.2,1.2,0.3c3.4,0.8,6.7,1.6,6.7,1.6l-5,18.9c0,0-2.5-0.5-5-1c-0.3-0.1-0.6-0.1-0.9-0.2c-0.4-0.1-0.7-0.1-1.1-0.1
						c-0.7-0.1-1.3-0.2-1.9-0.3c-1.1-0.2-1.9-0.3-1.9-0.3L1009.5,871.5z"/>
					<path class="st8" d="M1034.9,878.9c0,0,0.7,0.3,1.7,0.8c0.5,0.3,1.1,0.5,1.7,0.9c0.3,0.2,0.6,0.3,1,0.5c0.3,0.2,0.6,0.3,1,0.5
						c3,1.7,5.9,3.4,5.9,3.4l-8.5,15.3c0,0-2.4-1-4.7-2.1c-0.3-0.1-0.7-0.3-1-0.4c-0.3-0.1-0.7-0.3-1-0.4c-0.7-0.3-1.3-0.5-1.8-0.7
						c-1-0.4-1.7-0.7-1.7-0.7L1034.9,878.9z"/>
					<path class="st8" d="M1056.9,893c0,0,0.5,0.5,1.4,1.3c0.4,0.4,0.9,0.8,1.4,1.3c0.3,0.2,0.5,0.5,0.8,0.8
						c0.3,0.3,0.5,0.5,0.8,0.8c1.1,1.2,2.3,2.5,3.1,3.4c0.9,0.9,1.4,1.6,1.4,1.6l-9.5,9.6c0,0-0.6-0.4-1.3-1
						c-0.8-0.6-1.8-1.4-2.9-2.2c-1.2-0.8-2.5-1.7-3.4-2.3c-0.9-0.6-1.5-1.1-1.5-1.1L1056.9,893z"/>
					<path class="st8" d="M1073.3,912.9c0,0,0.4,0.7,0.9,1.7c0.3,0.5,0.6,1.1,0.9,1.7c0.3,0.6,0.7,1.3,1,2c1.4,3,2.6,5.9,2.6,5.9
						l-6.2,3.5c0,0-1.9-2.1-3.7-4.3c-1-1.1-2.1-2.2-2.9-3c-0.8-0.8-1.3-1.4-1.3-1.4L1073.3,912.9z"/>
					<path class="st8" d="M1082.1,936.2c0,0,0.3,1.5,0.5,3c0.2,1.5,0.4,3.1,0.4,3.1s-0.9-1.3-1.7-2.5c-0.9-1.3-1.7-2.6-1.7-2.6
						L1082.1,936.2z"/>
				</g>
			</g>
		</g>
		<path class="st7" d="M245.3,153h-65.6c-3.6,0-6.6-2.9-6.6-6.6c0-3.6,2.9-6.6,6.6-6.6h65.6c3.6,0,6.6,2.9,6.6,6.6
			C251.9,150.1,248.9,153,245.3,153z M225.6,133.3h-45.9c-3.6,0-6.6-2.9-6.6-6.6c0-3.6,2.9-6.6,6.6-6.6h45.9c3.6,0,6.6,2.9,6.6,6.6
			C232.2,130.4,229.3,133.3,225.6,133.3z M160.1,257.9c-3.6,0-6.6-2.9-6.6-6.6V120.2c0-3.6,2.9-6.6,6.6-6.6c3.6,0,6.6,2.9,6.6,6.6
			v131.1C166.6,255,163.7,257.9,160.1,257.9z M104.4,217.5c-0.1,0.1-0.2,0.1-0.3,0.2c-0.3,0.2-0.6,0.3-0.9,0.4
			c-0.6,0.2-1.2,0.4-1.9,0.4c-0.1,0-0.2,0.1-0.3,0.1c-3.6,0-6.6-2.9-6.6-6.6v-19.7H61.7c-3.6,0-6.6-2.9-6.6-6.6
			c0-3.6,2.9-6.6,6.6-6.6h32.8v-19.7c0-3.6,2.9-6.5,6.5-6.6c0,0,0,0,0,0h0c0,0,0,0,0.1,0c0.8,0,1.5,0.2,2.2,0.4
			c0.3,0.1,0.5,0.2,0.8,0.4c0.1,0.1,0.3,0.1,0.4,0.2l41.1,29.3c1.9,1.3,1.9,3.5,0,4.9L104.4,217.5z M179.7,159.6h39.3
			c3.6,0,6.6,2.9,6.6,6.6c0,3.6-2.9,6.6-6.6,6.6h-39.3c-3.6,0-6.6-2.9-6.6-6.6C173.2,162.5,176.1,159.6,179.7,159.6z M179.7,179.2
			h59c3.6,0,6.6,2.9,6.6,6.6c0,3.6-2.9,6.6-6.6,6.6h-59c-3.6,0-6.6-2.9-6.6-6.6C173.2,182.2,176.1,179.2,179.7,179.2z M179.7,198.9
			h39.3c3.6,0,6.6,2.9,6.6,6.6c0,3.6-2.9,6.6-6.6,6.6h-39.3c-3.6,0-6.6-2.9-6.6-6.6C173.2,201.8,176.1,198.9,179.7,198.9z
			 M179.7,218.6h52.5c3.6,0,6.6,2.9,6.6,6.6c0,3.6-2.9,6.6-6.6,6.6h-52.5c-3.6,0-6.6-2.9-6.6-6.6
			C173.2,221.5,176.1,218.6,179.7,218.6z M179.7,238.2h45.9c3.6,0,6.6,2.9,6.6,6.6c0,3.6-2.9,6.6-6.6,6.6h-45.9
			c-3.6,0-6.6-2.9-6.6-6.6C173.2,241.2,176.1,238.2,179.7,238.2z"/>
		<path class="st7" d="M735.4,920.5h-65.6c-3.6,0-6.6-2.9-6.6-6.6c0-3.6,2.9-6.6,6.6-6.6h65.6c3.6,0,6.6,2.9,6.6,6.6
			C742,917.6,739,920.5,735.4,920.5z M715.8,900.8h-45.9c-3.6,0-6.6-2.9-6.6-6.6c0-3.6,2.9-6.6,6.6-6.6h45.9c3.6,0,6.6,2.9,6.6,6.6
			C722.3,897.9,719.4,900.8,715.8,900.8z M650.2,1025.4c-3.6,0-6.6-2.9-6.6-6.6V887.7c0-3.6,2.9-6.6,6.6-6.6c3.6,0,6.6,2.9,6.6,6.6
			v131.1C656.7,1022.5,653.8,1025.4,650.2,1025.4z M594.6,985c-0.1,0.1-0.2,0.1-0.3,0.2c-0.3,0.2-0.6,0.3-0.9,0.4
			c-0.6,0.2-1.2,0.4-1.9,0.4c-0.1,0-0.2,0.1-0.3,0.1c-3.6,0-6.6-2.9-6.6-6.6v-19.7h-32.8c-3.6,0-6.6-2.9-6.6-6.6
			c0-3.6,2.9-6.6,6.6-6.6h32.8v-19.7c0-3.6,2.9-6.5,6.5-6.6c0,0,0,0,0,0h0c0,0,0,0,0.1,0c0.8,0,1.5,0.2,2.2,0.4
			c0.3,0.1,0.5,0.2,0.8,0.4c0.1,0.1,0.3,0.1,0.4,0.2l41.1,29.3c1.9,1.3,1.9,3.5,0,4.9L594.6,985z M669.9,927.1h39.3
			c3.6,0,6.6,2.9,6.6,6.6c0,3.6-2.9,6.6-6.6,6.6h-39.3c-3.6,0-6.6-2.9-6.6-6.6C663.3,930,666.2,927.1,669.9,927.1z M669.9,946.7h59
			c3.6,0,6.6,2.9,6.6,6.6c0,3.6-2.9,6.6-6.6,6.6h-59c-3.6,0-6.6-2.9-6.6-6.6C663.3,949.7,666.2,946.7,669.9,946.7z M669.9,966.4
			h39.3c3.6,0,6.6,2.9,6.6,6.6c0,3.6-2.9,6.6-6.6,6.6h-39.3c-3.6,0-6.6-2.9-6.6-6.6C663.3,969.3,666.2,966.4,669.9,966.4z
			 M669.9,986.1h52.5c3.6,0,6.6,2.9,6.6,6.6c0,3.6-2.9,6.6-6.6,6.6h-52.5c-3.6,0-6.6-2.9-6.6-6.6C663.3,989,666.2,986.1,669.9,986.1
			z M669.9,1005.7h45.9c3.6,0,6.6,2.9,6.6,6.6c0,3.6-2.9,6.6-6.6,6.6h-45.9c-3.6,0-6.6-2.9-6.6-6.6
			C663.3,1008.7,666.2,1005.7,669.9,1005.7z"/>
		<path class="st7" d="M1408.6,2.8H1343c-3.6,0-6.6-2.9-6.6-6.6c0-3.6,2.9-6.6,6.6-6.6h65.6c3.6,0,6.6,2.9,6.6,6.6
			C1415.1-0.2,1412.2,2.8,1408.6,2.8z M1388.9-16.9H1343c-3.6,0-6.6-2.9-6.6-6.6c0-3.6,2.9-6.6,6.6-6.6h45.9c3.6,0,6.6,2.9,6.6,6.6
			C1395.5-19.9,1392.5-16.9,1388.9-16.9z M1323.3,107.7c-3.6,0-6.6-2.9-6.6-6.6V-30c0-3.6,2.9-6.6,6.6-6.6c3.6,0,6.6,2.9,6.6,6.6
			v131.1C1329.9,104.7,1327,107.7,1323.3,107.7z M1267.7,67.3c-0.1,0.1-0.2,0.1-0.3,0.2c-0.3,0.2-0.6,0.3-0.9,0.4
			c-0.6,0.2-1.2,0.4-1.9,0.4c-0.1,0-0.2,0.1-0.3,0.1c-3.6,0-6.6-2.9-6.6-6.6V42.1H1225c-3.6,0-6.6-2.9-6.6-6.6s2.9-6.6,6.6-6.6h32.8
			V9.3c0-3.6,2.9-6.5,6.5-6.6c0,0,0,0,0,0h0c0,0,0,0,0.1,0c0.8,0,1.5,0.2,2.2,0.4c0.3,0.1,0.5,0.2,0.8,0.4c0.1,0.1,0.3,0.1,0.4,0.2
			l41.1,29.3c1.9,1.3,1.9,3.5,0,4.9L1267.7,67.3z M1343,9.3h39.3c3.6,0,6.6,2.9,6.6,6.6s-2.9,6.6-6.6,6.6H1343
			c-3.6,0-6.6-2.9-6.6-6.6S1339.4,9.3,1343,9.3z M1343,29h59c3.6,0,6.6,2.9,6.6,6.6s-2.9,6.6-6.6,6.6h-59c-3.6,0-6.6-2.9-6.6-6.6
			S1339.4,29,1343,29z M1343,48.7h39.3c3.6,0,6.6,2.9,6.6,6.6c0,3.6-2.9,6.6-6.6,6.6H1343c-3.6,0-6.6-2.9-6.6-6.6
			C1336.5,51.6,1339.4,48.7,1343,48.7z M1343,68.3h52.5c3.6,0,6.6,2.9,6.6,6.6c0,3.6-2.9,6.6-6.6,6.6H1343c-3.6,0-6.6-2.9-6.6-6.6
			C1336.5,71.3,1339.4,68.3,1343,68.3z M1343,88h45.9c3.6,0,6.6,2.9,6.6,6.6c0,3.6-2.9,6.6-6.6,6.6H1343c-3.6,0-6.6-2.9-6.6-6.6
			C1336.5,90.9,1339.4,88,1343,88z"/>
		<path class="st7" d="M936.7,805.6c-4.7,0-8.5-3.8-8.5-8.5c0-32.7-26.5-59.2-59.2-59.2c-4.7,0-8.5-3.8-8.5-8.5
			c0-4.7,3.8-8.5,8.5-8.5c42,0,76.1,34.1,76.1,76.1C945.2,801.8,941.4,805.6,936.7,805.6z M836.2,898.6c-13.9,0-24.6-4.4-31.9-13.1
			c-7.3-8.7-11-21.3-11-37.7c0-15.9,4.3-28.3,12.8-37.2c8.5-8.9,20.3-13.4,35.4-13.4c9.5,0,18.6,2,27.4,6.1l-6.5,16.7
			c-6.7-3.6-13.7-5.4-21-5.4c-8.5,0-15.2,3-20.3,9.1c-5.1,6.1-7.6,14.2-7.6,24.5c0,10.7,2.1,18.9,6.2,24.5
			c4.1,5.6,10.1,8.5,17.9,8.5c4.1,0,8.2-0.4,12.4-1.4v-20.6h-17.5v-17.4H869V893c-5.9,2.1-11.5,3.5-16.8,4.4
			C847,898.2,841.6,898.6,836.2,898.6z M775,853c3.8,3.8,5.7,9,5.7,15.5c0,9.5-3.2,16.9-9.6,22.2c-6.4,5.3-15.6,7.9-27.6,7.9
			c-10,0-18.9-1.8-26.6-5.3v-17.7c3.6,1.9,7.5,3.5,11.8,4.7c4.3,1.2,8.5,1.8,12.7,1.8c6.4,0,11.2-1.2,14.3-3.5
			c3.1-2.3,4.6-6.1,4.6-11.3c0-4.6-1.8-7.9-5.3-9.8c-3.5-1.9-9.2-2.9-16.9-2.9h-7v-16h7.1c7.2,0,12.4-1,15.7-3c3.3-2,5-5.4,5-10.3
			c0-7.5-4.4-11.2-13.1-11.2c-3,0-6.1,0.5-9.2,1.6c-3.1,1.1-6.6,2.9-10.4,5.6l-9-14.4c8.4-6.5,18.5-9.7,30.1-9.7
			c9.6,0,17.1,2.1,22.6,6.2c5.5,4.1,8.3,9.9,8.3,17.3c0,6.2-1.8,11.4-5.2,15.7c-3.5,4.3-8.4,7.3-14.7,8.9v0.4
			C765.6,846.7,771.2,849.1,775,853z M869.1,746.4c28,0,50.7,22.7,50.7,50.7c0,4.7-3.8,8.5-8.5,8.5c-4.7,0-8.5-3.8-8.5-8.5
			c0-18.7-15.1-33.8-33.8-33.8c-4.7,0-8.5-3.8-8.5-8.5C860.6,750.2,864.4,746.4,869.1,746.4z M869.1,771.8c14,0,25.4,11.4,25.4,25.4
			c0,4.7-3.8,8.5-8.5,8.5c-4.7,0-8.5-3.8-8.5-8.5c0-4.7-3.8-8.5-8.5-8.5c-4.7,0-8.5-3.8-8.5-8.5
			C860.6,775.6,864.4,771.8,869.1,771.8z"/>
		<path class="st7" d="M1070.5,164.5c-5.6,15.8-20.5,27.2-38.3,27.2c-17.8,0-32.7-11.5-38.3-27.3c-0.8,0-1.6,0.2-2.4,0.2
			c-22.5,0-40.7-18.2-40.7-40.7c0-7.3,2.1-14,5.4-19.9c-7.4-5.6-12.2-14.3-12.2-24.3c0-16.9,13.7-30.6,30.6-30.6
			c4.5,0,8.7,1,12.5,2.7c4.2-9.6,13.7-16.3,24.9-16.3h6.8c12.3,0,22.5,8.2,25.9,19.4c7.6-3.7,16.1-5.8,25-5.8
			c31.9,0,57.7,25.8,57.7,57.7C1127.3,138.4,1101.9,164,1070.5,164.5z M1032.2,69.5c-22.5,0-40.8,18.2-40.8,40.7
			c0,22.5,18.2,40.8,40.8,40.8c22.5,0,40.7-18.2,40.7-40.8C1072.9,87.7,1054.7,69.5,1032.2,69.5z M1035.6,83.1
			c-16.9,0-30.6,13.7-30.6,30.6c0,3.3,0.7,6.4,1.6,9.4c-5.2-4.9-8.4-11.9-8.4-19.6c0-15,12.2-27.2,27.2-27.2
			c7.7,0,14.6,3.3,19.6,8.4C1042,83.7,1038.9,83.1,1035.6,83.1z"/>
		<path class="st7" d="M425.9,72.9c-5.6,15.8-20.5,27.2-38.3,27.2c-17.8,0-32.7-11.5-38.3-27.3c-0.8,0-1.6,0.2-2.4,0.2
			c-22.5,0-40.7-18.2-40.7-40.8c0-7.3,2.1-14,5.4-19.9C304.1,6.7,299.3-2,299.3-12c0-16.9,13.7-30.6,30.6-30.6c4.5,0,8.7,1,12.5,2.7
			c4.2-9.6,13.7-16.3,24.9-16.3h6.8c12.3,0,22.5,8.2,25.9,19.4c7.6-3.7,16.1-5.8,25-5.8c31.9,0,57.7,25.8,57.7,57.7
			C482.7,46.8,457.3,72.4,425.9,72.9z M387.6-22.1c-22.5,0-40.8,18.2-40.8,40.7c0,22.5,18.2,40.8,40.8,40.8
			c22.5,0,40.7-18.2,40.7-40.8C428.4-3.9,410.1-22.1,387.6-22.1z M391-8.6c-16.9,0-30.6,13.7-30.6,30.6c0,3.3,0.7,6.4,1.6,9.4
			c-5.2-4.9-8.4-11.9-8.4-19.6c0-15,12.2-27.2,27.2-27.2c7.7,0,14.6,3.3,19.6,8.4C397.4-7.9,394.3-8.6,391-8.6z"/>
		<path class="st7" d="M1391.5,695.1c-5.6,15.8-20.5,27.2-38.3,27.2c-17.8,0-32.7-11.5-38.3-27.3c-0.8,0-1.6,0.2-2.4,0.2
			c-22.5,0-40.7-18.2-40.7-40.8c0-7.3,2.1-14,5.4-19.9c-7.4-5.6-12.2-14.3-12.2-24.3c0-16.9,13.7-30.6,30.6-30.6
			c4.5,0,8.7,1,12.5,2.7c4.2-9.6,13.7-16.3,24.9-16.3h6.8c12.3,0,22.5,8.2,25.9,19.4c7.6-3.7,16.1-5.8,25-5.8
			c31.9,0,57.7,25.8,57.7,57.7C1448.3,669,1422.9,694.6,1391.5,695.1z M1353.2,600c-22.5,0-40.8,18.2-40.8,40.7
			c0,22.5,18.2,40.8,40.8,40.8c22.5,0,40.7-18.2,40.7-40.8C1394,618.3,1375.7,600,1353.2,600z M1356.6,613.6
			c-16.9,0-30.6,13.7-30.6,30.6c0,3.3,0.7,6.4,1.6,9.4c-5.2-4.9-8.4-11.9-8.4-19.6c0-15,12.2-27.2,27.2-27.2
			c7.7,0,14.6,3.3,19.6,8.4C1363,614.3,1359.9,613.6,1356.6,613.6z"/>
		<path class="st7" d="M1367.6,1030.9c-5.6,15.8-20.5,27.2-38.3,27.2c-17.8,0-32.7-11.5-38.3-27.3c-0.8,0-1.6,0.2-2.4,0.2
			c-22.5,0-40.7-18.2-40.7-40.8c0-7.3,2.1-14,5.4-19.9c-7.4-5.6-12.2-14.3-12.2-24.3c0-16.9,13.7-30.6,30.6-30.6
			c4.5,0,8.7,1,12.5,2.7c4.2-9.6,13.7-16.3,24.9-16.3h6.8c12.3,0,22.5,8.2,25.9,19.4c7.6-3.7,16.1-5.8,25-5.8
			c31.9,0,57.7,25.8,57.7,57.7C1424.5,1004.8,1399.1,1030.4,1367.6,1030.9z M1329.4,935.9c-22.5,0-40.8,18.2-40.8,40.7
			c0,22.5,18.2,40.8,40.8,40.8c22.5,0,40.7-18.2,40.7-40.8C1370.1,954.1,1351.9,935.9,1329.4,935.9z M1332.8,949.4
			c-16.9,0-30.6,13.7-30.6,30.6c0,3.3,0.7,6.4,1.6,9.4c-5.2-4.9-8.4-11.9-8.4-19.6c0-15,12.2-27.2,27.2-27.2
			c7.7,0,14.6,3.3,19.6,8.4C1339.2,950.1,1336.1,949.4,1332.8,949.4z"/>
		<g class="st5">
			<path class="st6" d="M1116.5,414.1c12-0.4,22.1,9,22.5,21.1c0.1,1.7-0.1,3.3-0.4,4.9c20.6,13.5,44.6,22.1,70.4,24.3
				c3.7-6,10.2-10.1,17.8-10.3c7.6-0.2,14.3,3.4,18.4,9.1c25.6-3.9,49-14.1,68.7-28.9c-0.4-1.6-0.7-3.2-0.7-4.8
				c-0.4-12,9-22.1,21.1-22.5c12-0.4,22.1,9,22.5,21.1c0.4,12-9,22.1-21.1,22.5c-2.1,0.1-4.2-0.3-6.1-0.8
				c-23.3,18.3-51.4,30.8-82.3,35.2c-3.3,7.2-10.5,12.4-19,12.7c-8.5,0.3-15.9-4.4-19.8-11.4c-31.1-2.4-59.9-13.1-84.4-29.8
				c-1.9,0.6-3.9,1.1-6.1,1.2c-12,0.4-22.1-9-22.5-21.1C1095,424.6,1104.5,414.5,1116.5,414.1z"/>
			<path class="st7" d="M1223.9,367.1c-42.1,1.4-77.3-31.6-78.7-73.7c-1.4-42.1,31.6-77.3,73.7-78.7c42.1-1.4,77.3,31.6,78.7,73.7
				C1298.9,330.5,1265.9,365.7,1223.9,367.1z"/>
			<path class="st6" d="M1225.7,421.5c0,0,40.3-99.4,39.3-132c-1.1-32.6-88.1-29.8-87,2.8C1178.9,325,1225.7,421.5,1225.7,421.5z"/>
			<path class="st6" d="M1223.2,345.3c-30,1-55.2-22.6-56.2-52.6c-1-30,22.6-55.2,52.6-56.2c30.1-1,55.2,22.6,56.2,52.6
				C1276.8,319.2,1253.2,344.3,1223.2,345.3z"/>
			<path class="st6" d="M1222.5,323.5c-18,0.6-33.1-13.5-33.7-31.6c-0.6-18,13.6-33.1,31.6-33.7c18-0.6,33.1,13.5,33.7,31.6
				C1254.6,307.8,1240.5,322.9,1222.5,323.5z"/>
		</g>
		<g class="st5">
			<path class="st6" d="M68.1,511.7c12-0.4,22.1,9,22.5,21.1c0.1,1.7-0.1,3.3-0.4,4.9c20.6,13.5,44.6,22.1,70.4,24.3
				c3.7-6,10.2-10.1,17.8-10.3c7.6-0.2,14.3,3.4,18.4,9.1c25.6-3.9,49-14.1,68.7-28.9c-0.4-1.6-0.7-3.2-0.7-4.8
				c-0.4-12,9-22.1,21.1-22.5c12-0.4,22.1,9,22.5,21.1c0.4,12-9,22.1-21.1,22.5c-2.1,0.1-4.2-0.3-6.1-0.8
				c-23.3,18.3-51.4,30.8-82.3,35.2c-3.3,7.2-10.5,12.4-19,12.7c-8.5,0.3-15.9-4.4-19.8-11.4c-31.1-2.4-59.9-13.1-84.4-29.8
				c-1.9,0.6-3.9,1.1-6.1,1.2c-12,0.4-22.1-9-22.5-21.1C46.6,522.1,56,512.1,68.1,511.7z"/>
			<path class="st7" d="M175.4,464.6c-42.1,1.4-77.3-31.6-78.7-73.7c-1.4-42.1,31.6-77.3,73.7-78.7c42.1-1.4,77.3,31.6,78.7,73.7
				C250.5,428,217.5,463.2,175.4,464.6z"/>
			<path class="st6" d="M177.2,519c0,0,40.3-99.4,39.3-132c-1.1-32.6-88.1-29.8-87,2.8C130.5,422.5,177.2,519,177.2,519z"/>
			<path class="st6" d="M174.7,442.8c-30,1-55.2-22.6-56.2-52.6c-1-30,22.6-55.2,52.6-56.2c30.1-1,55.2,22.6,56.2,52.6
				C228.3,416.7,204.8,441.8,174.7,442.8z"/>
			<path class="st6" d="M174,421.1c-18,0.6-33.1-13.5-33.7-31.6c-0.6-18,13.6-33.1,31.6-33.7c18-0.6,33.1,13.5,33.7,31.6
				C206.2,405.4,192,420.5,174,421.1z"/>
		</g>
		<path class="st9" d="M1062.3,632c0,15.1-12.4,27.5-27.5,27.5H364.2c-15.1,0-27.5-12.4-27.5-27.5V168.7c0-15.1,12.4-27.5,27.5-27.5
			h670.6c15.1,0,27.5,12.4,27.5,27.5V632z"/>
		<rect x="381.7" y="179.9" class="st10" width="635.7" height="435.9"/>
		<rect x="381.7" y="194.4" class="st11" width="635.7" height="421.3"/>
		<path class="st12" d="M699.3,237.4c0,0-73.3-14.1-78,76.6c0,0-29.5,9.4-2.4,56.6c0,0,8.3,37.7,25.9,56.6c0,0-1.2,18.9-18.9,25.9
			c0,0-84.9,4.7-75.4,70.7c0,0,27.5,25.9,148.7,21.2c0,0,118.8,5.9,149.5-21.2c0,0,10.6-56.6-62.5-68.4c0,0-31.8-3.5-31.8-30.6
			c0,0,21.2-21.2,24.8-54.2c0,0,27.1-31.8-2.4-60.1C776.9,310.5,774.5,236.6,699.3,237.4z"/>
		<rect x="337.1" y="173.6" class="st13" width="532.5" height="35"/>
		<circle class="st14" cx="811.2" cy="192.9" r="7.2"/>
		<circle class="st14" cx="831.1" cy="192.9" r="7.2"/>
		<circle class="st14" cx="851.3" cy="192.9" r="7.2"/>
		<rect x="381.7" y="562.3" class="st15" width="635.7" height="53.4"/>
		<path class="st11" d="M984.3,587c0,3.9-3.9,7-8.7,7H408.2c-4.8,0-8.7-3.2-8.7-7c0-3.9,3.9-7,8.7-7h567.3
			C980.4,580,984.3,583.1,984.3,587z"/>
		<circle class="st9" cx="499" cy="587" r="10.5"/>
		<linearGradient id="SVGID_3_" gradientUnits="userSpaceOnUse" x1="699.5528" y1="776.7578" x2="699.5528" y2="645.834">
			<stop  offset="0" style="stop-color:#DADADA"/>
			<stop  offset="1" style="stop-color:#FFFFFF"/>
		</linearGradient>
		<path class="st16" d="M595,645.8l-44,88.1c0,0-31.8-11-28.1,42.8h353.6c0,0,3.7-46.5-29.4-44l-44-86.9H595z"/>
		<polygon class="st17" points="436.1,716.5 256.6,784.8 123.9,734 302.9,664.5 		"/>
		<polygon class="st9" points="123.9,791 118,822.3 257.2,882.8 431.3,818 431.3,777.7 257.2,841.3 		"/>
		<path class="st18" d="M436.1,809.3l-5.2-2.5l-173.3,65.9l-127.2-47.8c0,0-16.2-11.5-3.6-25l-0.3-4.1l-10,1.2l-2,19.7l10.9,17.6
			l131.6,46.9l177.1-66.9L436.1,809.3z"/>
		<path class="st19" d="M436.1,768.9v13.5L256,849.6l-129.3-49.7c0,0-8.6-3.7-7,13.1c0,0,2.7,11.6,10.5,15.2l127.3,48.9l178.5-67.8
			V823l-179.3,66.2l-135.2-52c0,0-13.6-7.6-14-26.3c0,0-4.4-20.1,16.3-24.5l132.7,50.8L436.1,768.9z"/>
		<polygon class="st9" points="123.9,738.6 118,769.9 257.2,830.4 431.3,765.6 431.3,725.3 257.2,788.9 		"/>
		<path class="st20" d="M436.1,756.9l-5.2-2.5l-173.3,65.9l-127.2-47.8c0,0-16.2-11.5-3.6-25l-0.3-4.1l-10,1.2l-2,19.7l10.9,17.6
			l131.6,46.9l177.1-66.9L436.1,756.9z"/>
		<path class="st17" d="M436.1,716.5V730L256,797.2l-129.3-49.7c0,0-8.6-3.7-7,13.1c0,0,2.7,11.6,10.5,15.2l127.3,48.9l178.5-67.8
			v13.7l-179.3,66.2l-135.2-52c0,0-13.6-7.6-14-26.3c0,0-4.4-20.1,16.3-24.5l132.7,50.8L436.1,716.5z"/>
		<polygon class="st13" points="435.5,662.8 256,731.1 123.3,680.3 302.2,610.9 		"/>
		<polygon class="st9" points="123.3,684.9 117.4,716.2 256.6,776.8 430.7,711.9 430.7,671.6 256.6,735.2 		"/>
		<path class="st21" d="M435.5,703.2l-5.2-2.5l-173.3,65.9l-127.2-47.8c0,0-16.2-11.5-3.6-25l-0.3-4.1l-10,1.2l-2,19.7l10.9,17.6
			l131.6,46.9l177.1-66.9L435.5,703.2z"/>
		<path class="st22" d="M435.5,662.8v13.5l-180.1,67.2l-129.3-49.7c0,0-8.6-3.7-7,13.1c0,0,2.7,11.6,10.5,15.2L257,771l178.5-67.8
			v13.7l-179.3,66.2l-135.2-52c0,0-13.6-7.6-14-26.3c0,0-4.4-20.1,16.3-24.5L256,731.1L435.5,662.8z"/>
		<path class="st23" d="M177.6,589v56.8c0,0,4.7,40.2,97.7,38.1c0,0,72.3-4.3,75.8-38.1V587L271,607.2L177.6,589z"/>
		<path class="st24" d="M177.6,626.6c0,0,69.1,29.7,89.9,27.7l83.6-27.7v-29.1c0,0-52.5,14.8-80.1,25.5c0,0-16,5.5-92.8-26.2
			L177.6,626.6z"/>
		<path class="st25" d="M264.3,502.8c0,0-21.8,3.5-39.1,11.1l-101.4,38c0,0-28.6,12.6,5.3,26L247.4,621c0,0,22.1,6,47-3.9L407.1,574
			c0,0,21.4-12.4,0-21.4l-118.9-44.9C288.2,507.7,281.3,504.2,264.3,502.8z"/>
		<path class="st26" d="M414.7,561.8c0,3-3.9,5.4-8.7,5.4H263.4c-4.8,0-8.7-2.5-8.7-5.4c0-3,3.9-5.4,8.7-5.4H406
			C410.8,556.4,414.7,558.8,414.7,561.8z"/>
		<rect x="402.2" y="556.4" class="st26" width="10.6" height="62.8"/>
		<polygon class="st27" points="414.7,625.5 397.3,625.5 388.8,662.8 425.7,662.8 		"/>
		<circle class="st26" cx="407.3" cy="622.1" r="13.2"/>
		<polygon class="st28" points="1142.7,743.3 1089.6,651.5 1136.6,623.9 972.3,521.3 979,716.4 1026.5,688.5 1080.3,778.8 		"/>
		<g>
			<polygon class="st29" points="990.8,695.1 1030.9,671.5 1084.8,761.9 1106.1,749.7 985.6,544.3 			"/>
			<polygon class="st30" points="1072.6,647 1112.5,623.6 985.6,544.3 1106.1,749.7 1125.6,738.6 			"/>
		</g>
	</g>
</g>
<g>
	<circle class="st31" cx="700" cy="380.5" r="88.5"/>
	<path class="st32" d="M700,271c-60.5,0-109.5,49-109.5,109.5S639.5,490,700,490s109.5-49,109.5-109.5S760.5,271,700,271z M700,469
		c-48.9,0-88.5-39.6-88.5-88.5S651.1,292,700,292c48.9,0,88.5,39.6,88.5,88.5S748.9,469,700,469z"/>
	<polygon class="st33" points="664.5,427 664.5,331 760.5,379 	"/>
</g>
</svg>
