<?xml version="1.0" encoding="utf-8"?>
<!-- Generator: Adobe Illustrator 21.1.0, SVG Export Plug-In . SVG Version: 6.00 Build 0)  -->
<svg version="1.1" id="Layer_1" xmlns="http://www.w3.org/2000/svg" xmlns:xlink="http://www.w3.org/1999/xlink" x="0px" y="0px"
	 viewBox="0 0 1400 980" style="enable-background:new 0 0 1400 980;" xml:space="preserve">
<style type="text/css">
	.st0{display:none;fill:#CFC8D6;}
	.st1{fill:#EF9595;}
	.st2{fill:#FFFFFF;}
	.st3{fill:#F4EDED;}
	.st4{fill:#AFAFAF;}
	.st5{fill:#9E9E9E;}
	.st6{fill:#E89C9C;}
	.st7{opacity:0.4;fill:#FFFFFF;}
	.st8{fill:#DD9090;}
	.st9{fill:#A6E2C9;}
	.st10{fill:#ABEFD5;}
	.st11{opacity:0.1;}
	.st12{fill:#E1FFF6;}
	.st13{fill:#A8E2CA;}
	.st14{fill:#F9A0A0;}
	.st15{fill:#E6DFED;}
	.st16{fill:#E5DCF4;}
	.st17{font-family:'MyriadPro-BoldCond';}
	.st18{font-size:149.5563px;}
	.st19{fill:#F4E38C;}
	.st20{fill:#FFEE8D;}
	.st21{fill:#FFF0B3;}
	.st22{fill:#FFF4C5;}
</style>
<rect class="st0" width="1400" height="980"/>
<g>
	<g>
		<path class="st1" d="M182.6,284.4c0,35.5-15.4,64.3-34.5,64.3c-19.1,0-42-28.8-42-64.3c0-35.5,23-64.3,42-64.3
			C167.1,220.1,182.6,248.9,182.6,284.4z"/>
		<path class="st2" d="M183,346.4c0,6.7-6.9,12.1-15,12.1l0,0c-8.1,0-15-5.4-15-12.1V221.7c0-6.7,6.9-12.1,15-12.1l0,0
			c8.1,0,15,5.4,15,12.1V346.4z"/>
		<path class="st2" d="M112,308.5c0,2.6-2.1,4.7-5,4.7l0,0c-2.9,0-5-2.1-5-4.7v-48.8c0-2.6,2.1-4.7,5-4.7l0,0c2.9,0,5,2.1,5,4.7
			V308.5z"/>
	</g>
	<g>
		<path class="st1" d="M301.4,284.4c0,35.5,15.4,64.3,34.5,64.3c19.1,0,42-28.8,42-64.3c0-35.5-23-64.3-42-64.3
			C316.8,220.1,301.4,248.9,301.4,284.4z"/>
		<path class="st2" d="M301,346.4c0,6.7,6.9,12.1,15,12.1l0,0c8.1,0,15-5.4,15-12.1V221.7c0-6.7-6.9-12.1-15-12.1l0,0
			c-8.1,0-15,5.4-15,12.1V346.4z"/>
		<path class="st2" d="M371,308.5c0,2.6,3.1,4.7,6,4.7l0,0c2.9,0,6-2.1,6-4.7v-48.8c0-2.6-3.1-4.7-6-4.7l0,0c-2.9,0-6,2.1-6,4.7
			V308.5z"/>
	</g>
	<path class="st2" d="M238.6,23.8C147.9,23.8,74,98,74,189.2c0,31.7,13.1,69.8,28.5,95l2.7-19.1c-12.9-22.4-20.3-48.3-20.3-76
		c0-84.4,68.9-153,153.7-153c84.7,0,153.7,68.6,153.7,153c0,27.3-6.4,65.4-19.1,87.6l9.4,6.2c13.6-24.1,20.6-64.2,20.6-93.9
		C403.1,98,329.3,23.8,238.6,23.8z"/>
	<path class="st3" d="M238.5,43.6c80.4,0,145.9,67.4,146,154.4h24.3C408.6,96,332.3,16,238.5,16C144.6,16,68.3,96,68.2,198h24.3
		C92.6,111,158,43.6,238.5,43.6z"/>
</g>
<g>
	<path class="st2" d="M174.2,584.9c-2.5,0-5-0.2-7.6-0.5c-32-4.1-58.8-31.5-66.4-41.8c-7.9-10.7-14.1-32.6-9-55.5
		c3.3-14.9,12.9-35.7,39.5-50c21.1-11.4,33.5-27.9,36.9-49.3c2.5-15.9-1.2-28.6-1.3-28.7l3.4-1c0.2,0.5,4,13.6,1.4,30.3
		c-2.4,15.5-11.1,37-38.7,51.9c-25.5,13.7-34.6,33.5-37.7,47.7c-4.6,20.9,0.7,42.3,8.4,52.6c10.2,13.8,36.6,36.9,64,40.4
		c14.6,1.9,27.9-1.9,39.5-11.3c21.8-17.6,24.7-41.8,27.7-67.5c2.6-21.7,5.2-44.1,20.3-61.9c10.2-12,27.4-17.2,49.7-15.1
		c31.8,3,67.4,20.5,74.3,32.8l-3.1,1.7c-5.7-10-38.9-27.9-71.5-30.9c-14.8-1.4-34.8-0.1-46.7,13.9c-14.4,17-17,38.9-19.4,60
		c-3,25.3-6.1,51.4-29,69.9C198.4,580.7,186.8,584.9,174.2,584.9z"/>
</g>
<g>
	<path class="st4" d="M406.3,486.1c1.5,1.7,0.4,2.6-0.9,3.7l0,0c-1.3,1.1-2.4,2.1-3.8,0.4l-15.3-17.4c-1.5-1.7-1.6-3.9-0.3-5.1l0,0
		c1.3-1.1,3.5-0.7,5,0.9L406.3,486.1z"/>
	<path class="st2" d="M391.5,466.6c1.3,1.4-0.2,2.4-2.9,4.8l0,0c-2,1.8-3.2,3.1-4.4,1.7l-13.1-14.9c-1.3-1.4-0.6-4,1.4-5.8l0,0
		c2-1.8,4.7-2.1,5.9-0.7L391.5,466.6z"/>
	
		<rect x="388.5" y="472.8" transform="matrix(0.7508 -0.6605 0.6605 0.7508 -215.5693 376.8092)" class="st5" width="6.2" height="2.7"/>
	
		<rect x="392.6" y="477.4" transform="matrix(0.7508 -0.6605 0.6605 0.7508 -217.6354 380.6974)" class="st5" width="6.2" height="2.7"/>
	
		<rect x="396.1" y="481.5" transform="matrix(0.7508 -0.6605 0.6605 0.7508 -219.4058 384.0307)" class="st5" width="6.2" height="2.7"/>
	
		<rect x="399.7" y="485.5" transform="matrix(0.7508 -0.6605 0.6605 0.7508 -221.1765 387.3632)" class="st5" width="6.2" height="2.7"/>
</g>
<g>
	<path class="st6" d="M1118.4,405.7c-3.2-5.2-6.7-8.2-10.4-8.8c-5-0.8-10.4,2.6-12,3.9l0.1,0l-11.7-13.6c1.2-1.1,12.4-10.2,26.4-8
		c9.2,1.5,16.9,7.3,23,17.3L1118.4,405.7z"/>
</g>
<g>
	<g>
		<polygon class="st1" points="1253.9,492.5 1249.5,475.7 954.7,361.6 959.7,348.8 1261.1,465.4 1267.2,489.1 		"/>
	</g>
	<g>
		<polygon class="st1" points="948.3,432.2 937.3,423.9 952,404.4 1275.1,411.1 1274.8,424.8 958.8,418.3 		"/>
	</g>
</g>
<g>
	<path class="st7" d="M1085.9,409.6c-10.9,29.5-40.2,50.1-76.2,42.9c-36-7.1-60.2-37.9-54.1-68.7c6.1-30.8,11.2-56.9,76.2-42.9
		C1078.3,350.9,1101.7,367,1085.9,409.6z"/>
	<path class="st1" d="M1008.6,458.7c-39.3-7.8-65.8-41.9-59.1-76.1c3.2-16,6.1-31.1,17.4-41.2c12.3-11.1,32.2-13.4,62.3-7.5
		c1.3,0.3,2.6,0.5,3.9,0.8c33.2,7.1,50.9,16.6,59.2,31.6c6.6,11.9,6.4,26.8-0.5,45.4c-6,16.2-17.1,29.8-31.3,38.4
		C1045.1,459.4,1027.2,462.3,1008.6,458.7z M1026.8,346.2c-25.6-5.1-42.5-3.6-51.5,4.5c-8.1,7.3-10.6,19.8-13.4,34.3
		c-5.4,27.4,16.7,54.9,49.2,61.3c35.2,7,60-14.6,69.1-39c5.5-15,6-26.4,1.3-35c-6.2-11.3-21.9-19.2-50.8-25.4
		C1029.2,346.7,1028,346.5,1026.8,346.2z"/>
</g>
<g>
	<path class="st7" d="M1124.1,417.1c-1.1,31.4,18.1,61.6,54.1,68.7c36,7.1,70.1-12.1,76.2-42.9c6.1-30.8,11.2-56.9-54.1-68.7
		C1153.4,365.7,1125.7,371.7,1124.1,417.1z"/>
	<path class="st1" d="M1177,491.9c-18.6-3.7-34.1-13.2-44.8-27.6c-9.9-13.3-15-30.2-14.4-47.4c0.7-19.8,6.2-33.6,16.8-42.2
		c13.3-10.8,33.3-12.8,66.8-6.7c1.3,0.2,2.7,0.5,3.9,0.7c30.2,6,47.6,15.7,54.8,30.6c6.6,13.6,3.6,28.7,0.4,44.7
		C1253.8,478.2,1216.3,499.7,1177,491.9z M1202.9,381c-1.2-0.2-2.5-0.5-3.7-0.7c-29.1-5.2-46.6-4-56.6,4.2
		c-7.6,6.1-11.6,16.9-12.1,32.8c-0.9,26,13.9,55.3,49.1,62.3c32.5,6.4,63.4-10.6,68.8-38c2.9-14.5,5.3-27,0.6-36.8
		C1243.5,393.9,1228.5,386.1,1202.9,381z"/>
</g>
<path class="st8" d="M970.4,348.2c-1.2,6-9.5,17.2-15.5,16.1l0,0c-6-1.2-9.9-7-8.7-13l0,0c1.2-6,7-9.9,13-8.7l0,0
	c6,1.2,9.9,7,8.7,13L970.4,348.2z"/>
<path class="st8" d="M1254.1,404.2c-1.2,6,2.2,19.5,8.2,20.7l0,0c6,1.2,11.8-2.7,13-8.7l0,0c1.2-6-2.7-11.8-8.7-13l0,0
	c-6-1.2-11.8,2.7-13,8.7L1254.1,404.2z"/>
<g>
	<path class="st9" d="M269.1,697.2c0.1,0.2,0,0.5-0.2,0.6l-9.6,3.3c-0.2,0.1-0.5-0.1-0.6-0.3l-4.1-11.8c-0.1-0.2,2-10.4,2.3-10.5
		c1.2-0.5,3.4-1.5,4.6-2c0.2-0.1,0.5,0,0.5,0.2c0.4,1.1,1.6,4.6,1.6,4.6L269.1,697.2z"/>
	<path class="st2" d="M357,907.1c1.6,4.7,1.3,9.4-1.2,10.3l-30.2,10.4c-2.5,0.9-5.7-2.6-7.3-7.4l-63.1-183.7c-1.6-4.7-1-8.6,1.6-9.5
		l30.2-10.4c2.5-0.9,5.4,1.8,7,6.6L357,907.1z"/>
	<path class="st2" d="M306.6,775.8c1.5,4.4-0.4,9.6-4.9,11.1l-13.7,4.7c-4.5,1.5-9.2-1.3-10.7-5.8l-22.2-64.8
		c-1.5-4.4,0.6-9.2,5-10.8l13.7-4.7c4.5-1.5,9.1,1,10.6,5.4L306.6,775.8z"/>
	<path class="st10" d="M359.3,901.4c1.5,4.5,0.4,8.4-2.6,9.4l-35.8,12.3c-3,1-6.4-1.3-7.9-5.8l-60-174.8c-1.5-4.5-0.3-8.5,2.7-9.6
		l35.8-12.3c3-1,6.4,1.4,7.9,5.9L359.3,901.4z"/>
	<path class="st2" d="M277.7,713.1c0.1,0.2,0.5,0.5,0.2,0.6l-16,5.5c-0.4,0.1-0.2-0.4-0.3-0.6l-7.1-20.6c-0.1-0.2-0.5-0.5-0.1-0.6
		l16-5.5c0.4-0.1,0.2,0.4,0.2,0.6L277.7,713.1z"/>
	
		<rect x="255.8" y="720.2" transform="matrix(0.9458 -0.3248 0.3248 0.9458 -219.3787 127.2138)" class="st11" width="31" height="1"/>
	
		<rect x="258.3" y="707" transform="matrix(0.9458 -0.3248 0.3248 0.9458 -215.3155 125.0114)" class="st11" width="17" height="1"/>
	<path class="st9" d="M277.2,659.3c0.6,1.7-1.6,3.4-4.7,4.4l-37.1,12.7c-3.1,1.1-5.9,1.1-6.5-0.6l-22.4-65.2
		c-0.6-1.7,1.4-4.1,4.5-5.2l37.1-12.7c3.1-1.1,6.1-0.3,6.7,1.3L277.2,659.3z"/>
</g>
<path class="st10" d="M209.9,601.7l21,61.3c0.6,1.7,2.8,2.5,5.2,1.6l28.7-9.9c2.4-0.8,3.6-2.8,3-4.4l-21-61.3L209.9,601.7z"/>
<polygon class="st12" points="565.5,170 529.8,170 532.4,115 562.2,115 "/>
<path class="st13" d="M579.7,170.3c0,6.6-5.4,5.7-12,5.7h-40.3c-6.6,0-12,0.9-12-5.7l0,0c0-6.6,5.4-12.3,12-12.3h40.3
	C574.4,158,579.7,163.7,579.7,170.3L579.7,170.3z"/>
<path class="st2" d="M551.2,221.6c0,0-1.1,8.6-3.3,8.7c-2.2,0.1-3.8-8.6-3.8-8.6l-1.6-45.7h10.3L551.2,221.6z"/>
<path class="st13" d="M567.1,119c0,8.2-3.2,7-7.3,7h-24.4c-4,0-7.3,1.2-7.3-7l0,0c0-8.2,3.2-15,7.3-15h24.4
	C563.8,104,567.1,110.9,567.1,119L567.1,119z"/>
<polygon class="st14" points="663.7,265.5 629.8,254.2 649.7,202.9 677.9,212.3 "/>
<path class="st1" d="M677.1,270.3c-2.1,6.3-6.9,3.7-13.2,1.6l-38.2-12.8c-6.3-2.1-11.6-3-9.5-9.2l0,0c2.1-6.3,9-9.9,15.2-7.8
	l38.2,12.8C675.9,256.9,679.2,264,677.1,270.3L677.1,270.3z"/>
<path class="st2" d="M633.7,310c0,0-3.8,7.8-5.8,7.2c-2.1-0.7-0.9-9.4-0.9-9.4l12.9-43.8l9.8,3.3L633.7,310z"/>
<path class="st1" d="M681.3,217.7c-2.6,7.8-5.3,5.6-9.1,4.3l-23.1-7.7c-3.8-1.3-7.3-1.1-4.7-8.9l0,0c2.6-7.8,7.8-13.2,11.6-12
	l23.1,7.7C683,202.4,683.9,209.9,681.3,217.7L681.3,217.7z"/>
<rect x="868.4" y="774" transform="matrix(3.195659e-02 -0.9995 0.9995 3.195659e-02 196.5323 1768.8989)" class="st1" width="286" height="18"/>
<rect x="871.4" y="777.1" transform="matrix(3.198270e-02 -0.9995 0.9995 3.198270e-02 199.3131 1771.9673)" class="st14" width="286" height="12"/>
<polygon class="st3" points="1025,640.4 1007,639.8 1017.4,606 1017.4,606 1017.4,606 "/>
<polygon class="st1" points="1019.6,615.8 1013.6,618.6 1017.2,605.4 1017.2,605.4 1017.2,605.4 "/>
<g>
	
		<rect x="487.3" y="392.9" transform="matrix(0.9989 -4.726666e-02 4.726666e-02 0.9989 -30.0241 32.9989)" class="st2" width="390.9" height="517"/>
	
		<rect x="487.5" y="400.9" transform="matrix(0.9989 -4.726976e-02 4.726976e-02 0.9989 -30.6 24.9224)" class="st14" width="48.3" height="517"/>
	<g>
		<g>
			
				<ellipse transform="matrix(0.9989 -4.722298e-02 4.722298e-02 0.9989 -40.9282 25.3442)" class="st15" cx="515.9" cy="878.9" rx="8.6" ry="8.6"/>
		</g>
		<g>
			
				<ellipse transform="matrix(0.9989 -4.733869e-02 4.733869e-02 0.9989 -38.9427 25.2605)" class="st15" cx="513.8" cy="834.8" rx="8.6" ry="8.6"/>
		</g>
		<g>
			
				<ellipse transform="matrix(0.9989 -4.722904e-02 4.722904e-02 0.9989 -36.7744 25.0522)" class="st15" cx="511.8" cy="790.7" rx="8.6" ry="8.6"/>
		</g>
		<g>
			
				<ellipse transform="matrix(0.9989 -4.722298e-02 4.722298e-02 0.9989 -34.6904 24.9012)" class="st15" cx="509.7" cy="746.7" rx="8.6" ry="8.6"/>
		</g>
		<g>
			
				<ellipse transform="matrix(0.9989 -4.728248e-02 4.728248e-02 0.9989 -32.6516 24.7857)" class="st15" cx="507.6" cy="702.6" rx="8.6" ry="8.6"/>
		</g>
		<g>
			
				<ellipse transform="matrix(0.9989 -4.722298e-02 4.722298e-02 0.9989 -30.532 24.6058)" class="st15" cx="505.5" cy="658.5" rx="8.6" ry="8.6"/>
		</g>
		<g>
			
				<ellipse transform="matrix(0.9989 -4.722298e-02 4.722298e-02 0.9989 -28.4528 24.4581)" class="st15" cx="503.4" cy="614.4" rx="8.6" ry="8.6"/>
		</g>
		<g>
			
				<ellipse transform="matrix(0.9989 -4.728111e-02 4.728111e-02 0.9989 -26.4054 24.3412)" class="st15" cx="501.3" cy="570.3" rx="8.6" ry="8.6"/>
		</g>
		<g>
			
				<ellipse transform="matrix(0.9989 -4.728084e-02 4.728084e-02 0.9989 -24.3234 24.1931)" class="st15" cx="499.2" cy="526.3" rx="8.6" ry="8.6"/>
		</g>
		<g>
			
				<ellipse transform="matrix(0.9989 -4.728115e-02 4.728115e-02 0.9989 -22.2418 24.0454)" class="st15" cx="497.2" cy="482.2" rx="8.6" ry="8.6"/>
		</g>
		<g>
			
				<ellipse transform="matrix(0.9989 -4.728087e-02 4.728087e-02 0.9989 -20.1599 23.8973)" class="st15" cx="495.1" cy="438.1" rx="8.6" ry="8.6"/>
		</g>
	</g>
	<g>
		<g>
			<g>
				
					<rect x="582.5" y="847.7" transform="matrix(0.9989 -4.726423e-02 4.726423e-02 0.9989 -39.3271 34.8029)" class="st16" width="267.4" height="2.7"/>
			</g>
		</g>
		<g>
			<g>
				
					<rect x="580.8" y="811.9" transform="matrix(0.9989 -4.726814e-02 4.726814e-02 0.9989 -37.6007 34.683)" class="st16" width="267.4" height="0.9"/>
			</g>
		</g>
		<g>
			<g>
				
					<rect x="579.1" y="774.4" transform="matrix(0.9989 -4.726814e-02 4.726814e-02 0.9989 -35.85 34.5586)" class="st16" width="267.4" height="1.8"/>
			</g>
		</g>
		<g>
			<g>
				
					<rect x="577.3" y="738.7" transform="matrix(0.9989 -4.726440e-02 4.726440e-02 0.9989 -34.1389 34.4344)" class="st16" width="267.4" height="0.9"/>
			</g>
		</g>
		<g>
			<g>
				
					<rect x="575.6" y="701.1" transform="matrix(0.9989 -4.726440e-02 4.726440e-02 0.9989 -32.3883 34.3101)" class="st16" width="267.4" height="1.8"/>
			</g>
		</g>
		<g>
			<g>
				
					<rect x="573.8" y="663.6" transform="matrix(0.9989 -4.726814e-02 4.726814e-02 0.9989 -30.6401 34.1884)" class="st16" width="267.4" height="2.7"/>
			</g>
		</g>
		<g>
			<g>
				
					<rect x="572.2" y="628.8" transform="matrix(0.9989 -4.726814e-02 4.726814e-02 0.9989 -28.9738 34.0701)" class="st16" width="267.4" height="1.8"/>
			</g>
		</g>
		<g>
			<g>
				
					<rect x="570.4" y="592.1" transform="matrix(0.9989 -4.726440e-02 4.726440e-02 0.9989 -27.2421 33.9444)" class="st16" width="267.4" height="1.8"/>
			</g>
		</g>
		<g>
			<g>
				
					<rect x="568.7" y="555.5" transform="matrix(0.9989 -4.726440e-02 4.726440e-02 0.9989 -25.5127 33.8216)" class="st16" width="267.4" height="1.8"/>
			</g>
		</g>
		<g>
			<g>
				
					<rect x="567" y="518.9" transform="matrix(0.9989 -4.726805e-02 4.726805e-02 0.9989 -23.785 33.7014)" class="st16" width="267.4" height="1.8"/>
			</g>
		</g>
		<g>
			<g>
				
					<rect x="565.2" y="482.2" transform="matrix(0.9989 -4.726636e-02 4.726636e-02 0.9989 -22.0547 33.5773)" class="st16" width="267.4" height="1.8"/>
			</g>
		</g>
		<g>
			<g>
				
					<rect x="563.6" y="446.5" transform="matrix(0.9989 -4.726627e-02 4.726627e-02 0.9989 -20.3884 33.4588)" class="st16" width="267.4" height="2.7"/>
			</g>
		</g>
	</g>
</g>
<g>
	<g>
		<path d="M514.9,879.5c0,1-0.9,1.9-2,2l-22.6,1.1c-1.2,0.1-2.1-0.7-2.2-1.8l0-0.8c0-1,0.9-1.9,2-2l22.6-1.1
			c1.2-0.1,2.1,0.7,2.2,1.8L514.9,879.5z"/>
	</g>
	<g>
		<path d="M512.8,835.4c0.1,1.3-0.9,3.1-2.2,3.2l-22.2,1.1c-1.3,0.1-2.4-1.7-2.4-2.9l0-0.5c-0.1-1.3,0.9-1.9,2.2-2l22.2-1
			c1.3-0.1,2.4,0.5,2.4,1.7L512.8,835.4z"/>
	</g>
	<g>
		<path d="M510.8,792.4c0.1,1.3-0.9,2.3-2.2,2.4l-22.2,1.1c-1.3,0.1-2.3-0.9-2.4-2.2l0-0.8c-0.1-1.3,0.9-2.3,2.2-2.4l22.2-1.1
			c1.3-0.1,2.3,0.9,2.4,2.2L510.8,792.4z"/>
	</g>
	<g>
		<path d="M508.6,746.6c0.1,1.3-1.1,2.6-2.4,2.6l-22,1c-1.3,0.1-2.3-1.1-2.4-2.4l0-0.8c-0.1-1.3,0.9-2.1,2.2-2.2l22-1
			c1.3-0.1,2.5,0.7,2.6,2L508.6,746.6z"/>
	</g>
	<g>
		<path d="M506.6,704c0.1,1.3-0.9,2.3-2.2,2.4l-22.2,1.1c-1.3,0.1-2.3-0.9-2.4-2.2l0-0.8c-0.1-1.3,0.9-2.3,2.2-2.4l22.2-1.1
			c1.3-0.1,2.3,0.9,2.4,2.2L506.6,704z"/>
	</g>
	<g>
		<path d="M504.5,660.2c0.1,1.3-0.9,2.3-2.2,2.4l-22.2,1.1c-1.3,0.1-2.3-0.9-2.4-2.2l0-0.8c-0.1-1.3,0.9-2.3,2.2-2.4l22.2-1.1
			c1.3-0.1,2.3,0.9,2.4,2.2L504.5,660.2z"/>
	</g>
	<g>
		<path d="M502.4,614.6c0.1,1.3-0.9,2.3-2.2,2.4l-22.2,1.1c-1.3,0.1-2.3-0.9-2.4-2.2l0-0.8c-0.1-1.3,0.9-2.3,2.2-2.4l22.2-1.1
			c1.3-0.1,2.3,0.9,2.4,2.2L502.4,614.6z"/>
	</g>
	<g>
		<path d="M500.3,570.8c0.1,1.3-0.9,2.3-2.2,2.4l-22.2,1.1c-1.3,0.1-2.3-0.9-2.4-2.2l0-0.8c-0.1-1.3,0.9-2.3,2.2-2.4l22.2-1.1
			c1.3-0.1,2.3,0.9,2.4,2.2L500.3,570.8z"/>
	</g>
	<g>
		<path d="M498.3,528c0.1,1.3-0.9,2.3-2.2,2.4l-22.2,1.1c-1.3,0.1-2.3-0.9-2.4-2.2l0-0.8c-0.1-1.3,0.9-2.3,2.2-2.4l22.2-1.1
			c1.3-0.1,2.3,0.9,2.4,2.2L498.3,528z"/>
	</g>
	<g>
		<path d="M496.1,483.3c0.1,1.3-0.9,2.3-2.2,2.4l-22.2,1.1c-1.3,0.1-2.3-0.9-2.4-2.2l0-0.8c-0.1-1.3,0.9-2.3,2.2-2.4l22.2-1.1
			c1.3-0.1,2.3,0.9,2.4,2.2L496.1,483.3z"/>
	</g>
	<g>
		<path d="M494.1,439.5c0.1,1.3-0.9,2.3-2.2,2.4l-22.2,1.1c-1.3,0.1-2.3-0.9-2.4-2.2l0-0.8c-0.1-1.3,0.9-2.3,2.2-2.4l22.2-1.1
			c1.3-0.1,2.3,0.9,2.4,2.2L494.1,439.5z"/>
	</g>
</g>
<g>
	
		<rect x="180.4" y="675.4" transform="matrix(0.9316 -0.3635 0.3635 0.9316 -278.15 123.6224)" class="st1" width="18" height="251"/>
	
		<rect x="186.2" y="674.3" transform="matrix(0.9316 -0.3635 0.3635 0.9316 -277.5843 124.5789)" class="st14" width="12" height="251"/>
	<polygon class="st3" points="152.2,680.7 135.4,687.2 133.2,655.9 133.2,655.9 133.2,655.9 	"/>
	<polygon class="st1" points="138.5,662.8 134,667.4 132.7,655.3 132.7,655.3 132.7,655.3 	"/>
</g>
<rect x="228.2" y="917.4" transform="matrix(0.9316 -0.3635 0.3635 0.9316 -319.4124 149.3779)" class="st2" width="18" height="12"/>
<g>
	<rect x="1132" y="76" class="st2" width="203" height="183"/>
	<rect x="1132" y="93" class="st14" width="203" height="20"/>
	<g>
		<g>
			<circle class="st15" cx="1309.9" cy="84.7" r="5.7"/>
		</g>
		<g>
			<circle class="st15" cx="1269.8" cy="84.7" r="5.7"/>
		</g>
		<g>
			<circle class="st15" cx="1229.7" cy="84.7" r="5.7"/>
		</g>
		<g>
			<circle class="st15" cx="1189.6" cy="84.7" r="5.7"/>
		</g>
		<g>
			<circle class="st15" cx="1149.5" cy="84.7" r="5.7"/>
		</g>
	</g>
	<g>
		<path d="M1152,84.2c0,1-0.8,1.8-1.8,1.8h-0.4c-1,0-1.8-0.8-1.8-1.8V66.8c0-1,0.8-1.8,1.8-1.8h0.4c1,0,1.8,0.8,1.8,1.8V84.2z"/>
	</g>
	<g>
		<path d="M1192,84.2c0,1-0.8,1.8-1.8,1.8h-0.4c-1,0-1.8-0.8-1.8-1.8V66.8c0-1,0.8-1.8,1.8-1.8h0.4c1,0,1.8,0.8,1.8,1.8V84.2z"/>
	</g>
	<g>
		<path d="M1232,84.2c0,1-0.8,1.8-1.8,1.8h-0.4c-1,0-1.8-0.8-1.8-1.8V66.8c0-1,0.8-1.8,1.8-1.8h0.4c1,0,1.8,0.8,1.8,1.8V84.2z"/>
	</g>
	<g>
		<path d="M1272,84.2c0,1-0.8,1.8-1.8,1.8h-0.4c-1,0-1.8-0.8-1.8-1.8V66.8c0-1,0.8-1.8,1.8-1.8h0.4c1,0,1.8,0.8,1.8,1.8V84.2z"/>
	</g>
	<g>
		<path d="M1312,84.2c0,1-0.8,1.8-1.8,1.8h-0.4c-1,0-1.8-0.8-1.8-1.8V66.8c0-1,0.8-1.8,1.8-1.8h0.4c1,0,1.8,0.8,1.8,1.8V84.2z"/>
	</g>
</g>
<text transform="matrix(1 0 0 1 1167.8633 235.8519)" class="st1 st17 st18">12</text>
<rect x="947.4" y="783" transform="matrix(3.195663e-02 -0.9995 0.9995 3.195663e-02 264.0123 1856.571)" class="st19" width="286" height="18"/>
<rect x="950.4" y="786.1" transform="matrix(3.198270e-02 -0.9995 0.9995 3.198270e-02 266.7911 1859.639)" class="st20" width="286" height="12"/>
<polygon class="st2" points="1104,649.4 1086,648.8 1096.4,615 1096.4,615 1096.4,615 "/>
<polygon class="st20" points="1098.6,624.8 1092.6,627.6 1096.2,614.4 1096.2,614.4 1096.2,614.4 "/>
<g>
	<path class="st20" d="M850.2,224.1c0.1-0.1,0.4-0.2,0.6,0l6.9,7.4c0.2,0.2,0.1,0.5,0,0.6l-9.2,8.5c-0.1,0.1-10.4,2.4-10.5,2.2
		c-0.9-0.9-2.8-2.5-3.7-3.4c-0.2-0.2-0.2-0.4-0.1-0.5c0.9-0.8,3.6-3.3,3.6-3.3L850.2,224.1z"/>
	<path class="st2" d="M1006.6,58.8c3.7-3.4,8.1-5,9.9-3.1l21.7,23.5c1.8,2-0.1,6.3-3.8,9.7L892,220.8c-3.7,3.4-7.5,4.4-9.3,2.4
		L861,199.7c-1.8-2-0.5-5.6,3.2-9L1006.6,58.8z"/>
	<path class="st2" d="M906.9,158c3.4-3.2,8.9-3.5,12.2,0l9.8,10.6c3.2,3.5,2.5,8.9-0.9,12.1l-50.3,46.5c-3.4,3.2-8.7,3.2-11.9-0.2
		l-9.8-10.6c-3.2-3.5-2.8-8.7,0.7-11.9L906.9,158z"/>
	<path class="st21" d="M1000.5,59c3.5-3.2,7.5-3.7,9.7-1.4l25.7,27.8c2.2,2.3,1.4,6.4-2.1,9.6L898.2,220.5c-3.5,3.2-7.7,3.8-9.8,1.4
		l-25.7-27.8c-2.2-2.3-1.3-6.4,2.2-9.6L1000.5,59z"/>
	<path class="st2" d="M861.2,209.8c0.1-0.1,0.2-0.7,0.5-0.4l11.5,12.4c0.3,0.3-0.3,0.4-0.4,0.5l-16,14.8c-0.1,0.1-0.2,0.6-0.5,0.4
		L844.9,225c-0.3-0.3,0.3-0.3,0.4-0.4L861.2,209.8z"/>
	<rect x="870.3" y="197" transform="matrix(0.7337 -0.6795 0.6795 0.7337 87.5118 648.3123)" class="st11" width="1" height="31"/>
	<rect x="860" y="213.5" transform="matrix(0.7337 -0.6795 0.6795 0.7337 78.2878 643.822)" class="st11" width="1" height="17"/>
	<path class="st20" d="M812.2,232c1.3-1.2,3.7,0.1,6,2.5l26.6,28.8c2.2,2.4,3.4,5,2.1,6.2l-50.5,46.8c-1.3,1.2-4.3,0.4-6.5-2
		l-26.6-28.8c-2.2-2.4-2.8-5.4-1.5-6.6L812.2,232z"/>
</g>
<path class="st22" d="M786.8,316.9l47.5-44c1.3-1.2,1.1-3.5-0.6-5.4l-20.6-22.3c-1.7-1.9-4-2.2-5.3-1l-47.5,44L786.8,316.9z"/>
<g>
	
		<rect x="1176.3" y="657.7" transform="matrix(0.968 -0.251 0.251 0.968 -158.6454 322.6176)" class="st9" width="18" height="251"/>
	
		<rect x="1182.2" y="656.9" transform="matrix(0.968 -0.251 0.251 0.968 -158.3778 323.3645)" class="st10" width="12" height="251"/>
	<polygon class="st2" points="1162.6,659.5 1145.1,664 1146.6,632.6 1146.6,632.6 1146.6,632.6 	"/>
	<polygon class="st10" points="1151.1,640.1 1146.1,644.1 1146.3,632 1146.3,632 1146.3,632 	"/>
</g>
<rect x="1209.3" y="904.5" transform="matrix(0.968 -0.251 0.251 0.968 -189.5406 334.9785)" class="st2" width="18" height="12"/>
<path class="st1" d="M96,701c0-5.5-4.5-10-10-10H54c-5.5,0-10,4.5-10,10v25h52V701z"/>
<path class="st2" d="M44,726v61c0,5.5,4.5,10,10,10h32c5.5,0,10-4.5,10-10v-61H44z"/>
</svg>
